<?xml version="1.0" encoding="UTF-8" standalone="no"?>
<!-- Created with Inkscape (http://www.inkscape.org/) -->

<svg
   xmlns:dc="http://purl.org/dc/elements/1.1/"
   xmlns:cc="http://creativecommons.org/ns#"
   xmlns:rdf="http://www.w3.org/1999/02/22-rdf-syntax-ns#"
   xmlns="http://www.w3.org/2000/svg"
   xmlns:inkscape="http://www.inkscape.org/namespaces/inkscape"
   version="1.1"
   width="547.5"
   height="577.5"
   id="svg2"
   xml:space="preserve"><metadata
     id="metadata8"><rdf:RDF><cc:Work
         rdf:about=""><dc:format>image/svg+xml</dc:format><dc:type
           rdf:resource="http://purl.org/dc/dcmitype/StillImage" /></cc:Work></rdf:RDF></metadata><defs
     id="defs6"><clipPath
       id="clipPath18"><path
         d="m 0,0 595.32,0 0,841.92004 -595.32,0 L 0,0 z"
         inkscape:connector-curvature="0"
         id="path20" /></clipPath><clipPath
       id="clipPath52"><path
         d="m 43.68,443.67999 0,678.72001 750.08001,0 0,-678.72001 -750.08001,0 z"
         inkscape:connector-curvature="0"
         id="path54" /></clipPath></defs><g
     transform="matrix(1.25,0,0,-1.25,0,577.5)"
     id="g10"><g
       transform="translate(-99,-21)"
       id="g12"><g
         id="g14"><g
           clip-path="url(#clipPath18)"
           id="g16"><g
             transform="matrix(0.75,0,0,-0.75,0,841.92004)"
             id="g22"><g
               transform="translate(299.51999,725.28003)"
               id="g24"><path
                 d="M 0,0 1.6,-10.4 3.2,-20.48 4.96,-30.559999 7.04,-40.48 9.12,-50.400002 11.36,-60 l 2.4,-9.440002 2.56,-9.279999 2.720001,-9.119995 L 21.92,-96.800003 24.799999,-105.44 28,-113.76 l 3.200001,-8.32 3.36,-7.84 3.359997,-7.68001 3.520001,-7.36 3.68,-7.03999 3.84,-6.88 3.84,-6.4 3.84,-6.08 4,-5.92 4.160004,-5.44 4.159996,-5.12 4.160004,-4.8 4.319999,-4.32001 4.32,-4 4.32,-3.67999 4.479996,-3.36 4.480003,-2.88 4.479996,-2.56 4.480003,-2.08 4.48,-1.76 4.48,-1.44"
                 inkscape:connector-curvature="0"
                 id="path26"
                 style="fill:none;stroke:#000000;stroke-width:1.91999996;stroke-linecap:round;stroke-linejoin:round;stroke-miterlimit:10;stroke-opacity:1;stroke-dasharray:none" /></g><g
               transform="translate(598.23999,605.44)"
               id="g28"><path
                 d="m 0,0 -8.16,-9.6 -8.479999,-9.119999 -8.800002,-8.640002 -9.12,-8.319999 L -44,-43.52 -53.759998,-50.880001 -63.68,-57.759998 -73.919998,-64.32 -84.480003,-70.080002 -95.199997,-75.519997 -106.08,-80.32 -117.12,-84.639999 -128.32001,-88.480003 -139.67999,-91.68 -151.2,-94.239998 -162.72,-96.32 l -11.52,-1.599998 -11.51999,-0.959999"
                 inkscape:connector-curvature="0"
                 id="path30"
                 style="fill:none;stroke:#000000;stroke-width:1.91999996;stroke-linecap:round;stroke-linejoin:round;stroke-miterlimit:10;stroke-opacity:1;stroke-dasharray:none" /></g><g
               transform="translate(553.28003,605.59998)"
               id="g32"><path
                 d="m 0,0 -6.24,-9.12 -6.56,-8.96 -6.72,-8.479999 -7.039999,-8.000002 -7.199999,-7.680001 -7.360001,-7.199997 -7.68,-6.880001 -7.680001,-6.400001 -8.000003,-5.760002 -8.159996,-5.439995 -8.160004,-4.959999 -8.32,-4.32 -8.479995,-4 -8.640002,-3.360001 -8.48,-2.880004 -8.64,-2.399994 -8.8,-1.760002 -8.64,-1.440003"
                 inkscape:connector-curvature="0"
                 id="path34"
                 style="fill:none;stroke:#000000;stroke-width:0.95999998;stroke-linecap:round;stroke-linejoin:round;stroke-miterlimit:10;stroke-opacity:1;stroke-dasharray:none" /></g><g
               transform="translate(299.51999,725.28003)"
               id="g36"><path
                 d="m 0,0 8.16,-6.4 8.32,-6.24 8.479999,-6.239999 8.639999,-6.08 8.640004,-5.92 8.799999,-5.92 L 60,-42.400002 68.800003,-48 77.919998,-53.439999 87.040001,-58.560001 96,-63.68 l 9.28,-4.959999 9.12,-4.64 9.12,-4.480003 9.12,-4.32 9.11999,-4.159996 8.96001,-4 9.12,-3.68 8.8,-3.520004 8.96001,-3.199998 8.63999,-3.04 8.79999,-2.88 8.48001,-2.56 8.48,-2.24 8.16,-2.08 8.16001,-1.92 8,-1.6 7.67999,-1.28 7.67999,-1.12 7.36002,-0.96 7.19998,-0.48 6.88001,-0.32 6.72,-0.16 6.55999,0.16 6.24002,0.48 6.07999,0.8"
                 inkscape:connector-curvature="0"
                 id="path38"
                 style="fill:none;stroke:#000000;stroke-width:1.91999996;stroke-linecap:round;stroke-linejoin:round;stroke-miterlimit:10;stroke-opacity:1;stroke-dasharray:none" /></g><g
               transform="translate(554.40002,605.59998)"
               id="g40"><path
                 d="m 0,0 -0.32,-0.8 -0.8,-0.32 -0.8,0.32 -0.32,0.8 0.32,0.8 0.8,0.32 L -0.32,0.8 0,0 z"
                 inkscape:connector-curvature="0"
                 id="path42"
                 style="fill:none;stroke:#000000;stroke-width:1.91999996;stroke-linecap:round;stroke-linejoin:round;stroke-miterlimit:10;stroke-opacity:1;stroke-dasharray:none" /></g><g
               transform="translate(272.79999,961.91998)"
               id="g44"><path
                 d="M 0,0 -0.48,-0.8 -1.12,-1.12 -1.92,-0.8 -2.24,0 -1.92,0.8 -1.12,1.12 -0.48,0.8 0,0 z"
                 inkscape:connector-curvature="0"
                 id="path46"
                 style="fill:none;stroke:#000000;stroke-width:1.91999996;stroke-linecap:round;stroke-linejoin:round;stroke-miterlimit:10;stroke-opacity:1;stroke-dasharray:none" /></g><g
               id="g48"><g
                 clip-path="url(#clipPath52)"
                 id="g50"><g
                   transform="translate(321.60001,699.35998)"
                   id="g56"><path
                     d="m 0,0 -1.92,0.16 0,0 0,0.32 0.16,0.32 0.16,0.48 0.16,0.32 0.16,0.48 1.76,0 0,-0.16 0,-0.16 L 0.32,1.44 0.16,1.12 0.16,0.8 0,0.48 0,0 z"
                     inkscape:connector-curvature="0"
                     id="path58"
                     style="fill:#000000;fill-opacity:1;fill-rule:evenodd;stroke:#000000;stroke-width:0.5;stroke-linecap:round;stroke-linejoin:round;stroke-miterlimit:10;stroke-opacity:1;stroke-dasharray:none" /></g><g
                   transform="translate(312.79999,691.84003)"
                   id="g60"><path
                     d="m 0,0 -0.16,0.32 -0.32,0.32 -0.16,0.32 -0.16,0.32 0,0.32 -0.16,0.48 -0.16,0.32 0,0.48 -0.16,0.48 0,0.48 0,0.48 0,0.32 0,0.48 0.16,0.48 0,0.32 0.16,0.48 0,0.32 0.16,0.48 0.16,0.32 0.16,0.32 0.32,0.32 0.16,0.32 0.16,0 3.36,-0.16 0,0 -0.48,0 -0.32,0 L 2.4,8.16 2.08,7.84 1.76,7.68 1.44,7.36 1.44,7.04 1.28,6.72 1.12,6.4 0.96,6.08 0.8,5.6 l 0,-0.48 0,-0.48 0,-0.48 0,-0.32 0,-0.48 0,-0.48 0.16,-0.32 0.16,-0.48 0,-0.32 0.16,-0.32 0.32,-0.32 0,0 L 1.76,0.8 2.08,0.48 2.4,0.32 2.88,0.16 3.2,0.16 3.68,0 0,0 z"
                     inkscape:connector-curvature="0"
                     id="path62"
                     style="fill:#000000;fill-opacity:1;fill-rule:evenodd;stroke:#000000;stroke-width:0.5;stroke-linecap:round;stroke-linejoin:round;stroke-miterlimit:10;stroke-opacity:1;stroke-dasharray:none" /></g><g
                   transform="translate(322.07999,690.56)"
                   id="g64"><path
                     d="m 0,0 -1.76,0 -0.16,0.32 -0.16,0.64 -0.16,0.32 0,0.32 -0.16,0.32 -1.44,0.16 0.32,0.32 0.16,0.16 0.16,0.32 0.16,0.32 0,0.32 0.16,0.48 0,0.32 0.16,0.48 0,0.48 0,0.16 0,0.48 -0.16,0.48 0,0.32 -0.16,0.48 -0.16,0.32 0,0.32 -0.16,0.32 -0.32,0.32 0,0.16 -0.32,0.32 -0.32,0.16 -0.32,0.32 -0.32,0.16 -0.32,0 -0.48,0 -3.36,0.16 0.16,0.32 0.32,0.32 0.32,0.16 0.32,0.16 0.48,0.16 0.32,0.16 0.32,0 0.48,0.16 0.48,0 0.16,0 0.48,0 0.32,-0.16 0.48,-0.16 0.32,0 0.32,-0.32 L -3.52,10.4 -3.2,10.24 -3.04,9.92 -2.72,9.6 -2.56,9.28 -2.4,8.96 -0.48,8.8 -0.64,8.48 -0.8,8 l 0,-0.48 -0.16,-0.48 -0.16,-0.48 0,-0.64 -0.16,-0.48 0,-0.16 0.16,-0.48 0.16,-0.48 0,-0.48 0.16,-0.48 0,-0.32 0.16,-0.48 0.16,-0.32 0,-0.48 0.16,-0.32 0,-0.48 L -0.16,0.64 0,0.32 0,0 z"
                     inkscape:connector-curvature="0"
                     id="path66"
                     style="fill:#000000;fill-opacity:1;fill-rule:evenodd;stroke:#000000;stroke-width:0.5;stroke-linecap:round;stroke-linejoin:round;stroke-miterlimit:10;stroke-opacity:1;stroke-dasharray:none" /></g><g
                   transform="translate(316.16,690.40002)"
                   id="g68"><path
                     d="m 0,0 -0.16,0 -0.48,0 -0.32,0 -0.48,0.16 -0.32,0.16 -0.32,0.16 -0.32,0.16 -0.32,0.32 -0.32,0.16 -0.32,0.32 3.68,0 0.32,0 L 1.12,1.6 1.44,1.76 1.76,1.92 2.08,2.24 3.52,2.08 3.52,1.92 3.2,1.6 2.88,1.12 2.72,0.96 2.4,0.64 2.08,0.48 1.92,0.32 1.6,0.16 1.28,0.16 0.8,0 0.48,0 0,0 z"
                     inkscape:connector-curvature="0"
                     id="path70"
                     style="fill:#000000;fill-opacity:1;fill-rule:evenodd;stroke:#000000;stroke-width:0.5;stroke-linecap:round;stroke-linejoin:round;stroke-miterlimit:10;stroke-opacity:1;stroke-dasharray:none" /></g><g
                   transform="translate(615.03998,618.40002)"
                   id="g72"><path
                     d="m 0,0 -4.48,0.16 0.16,0 0.48,0 0.32,0 0.48,0 0.32,0 0.16,0.16 0.32,0 0.32,0.16 0.32,0.32 0.16,0.32 0.16,0.16 0.16,0.32 0.16,0.48 0,0.32 0,0.16 0,0.32 -0.16,0.32 -0.16,0.32 -0.16,0.32 -0.16,0.32 -0.32,0.16 -0.32,0.16 -0.32,0.16 -0.48,0.16 0,0 -0.32,0 -0.48,0 -0.48,0 -3.36,0.16 7.84,0 L 0.32,4.64 0.48,4.16 0.64,3.84 0.8,3.52 0.8,3.2 0.96,2.72 0.96,2.4 0.96,2.08 0.8,1.6 0.8,1.28 0.64,0.96 0.48,0.64 0.16,0.32 l 0,0 L 0,0 z"
                     inkscape:connector-curvature="0"
                     id="path74"
                     style="fill:#000000;fill-opacity:1;fill-rule:evenodd;stroke:#000000;stroke-width:0.5;stroke-linecap:round;stroke-linejoin:round;stroke-miterlimit:10;stroke-opacity:1;stroke-dasharray:none" /></g><g
                   transform="translate(614.71997,612.64001)"
                   id="g76"><path
                     d="m 0,0 -4.64,0 0.32,0 0.48,0 0.32,0 0.48,0.16 0.32,0 0.16,0 0.16,0 0.32,0.16 0.32,0.32 0.16,0.32 0.16,0 0,0.32 0.16,0.48 0,0.32 0,0.16 0,0.48 -0.16,0.32 -0.16,0.32 -0.16,0 -0.16,0.32 -0.32,0.16 -0.48,0.16 -0.16,0 -0.16,0.16 -0.48,0 -0.32,0 -0.64,0 -2.88,0.16 6.72,0 L -0.32,4.16 -0.16,3.84 0,3.52 0.16,3.36 0.32,3.04 0.48,2.56 l 0,-0.32 0,-0.32 0,-0.16 0,-0.32 0,-0.32 L 0.32,0.8 0.16,0.32 0,0 z"
                     inkscape:connector-curvature="0"
                     id="path78"
                     style="fill:#000000;fill-opacity:1;fill-rule:evenodd;stroke:#000000;stroke-width:0.5;stroke-linecap:round;stroke-linejoin:round;stroke-miterlimit:10;stroke-opacity:1;stroke-dasharray:none" /></g><g
                   transform="translate(610.71997,611.03998)"
                   id="g80"><path
                     d="m 0,0 -5.28,0 0,13.92 5.28,0 0.48,-0.16 0.32,0 0.48,0 0.32,0 0.32,-0.16 0.32,0 0.16,0 0.48,-0.16 0.32,-0.16 0.32,-0.16 0.32,-0.32 0,0 0.32,-0.32 0.32,-0.16 -7.84,0 0,-4.8 3.2,0 L 4.32,7.36 4,7.04 3.68,6.88 3.36,6.72 3.04,6.56 2.56,6.4 l 0.16,0 0.32,-0.16 0.32,-0.32 -6.72,0 0,-4.32 2.72,0 L 4,1.6 3.68,1.28 3.52,0.96 3.2,0.8 2.88,0.48 2.56,0.32 2.24,0.32 1.92,0.16 1.6,0.16 1.28,0 0.8,0 0.48,0 0,0 z"
                     inkscape:connector-curvature="0"
                     id="path82"
                     style="fill:#000000;fill-opacity:1;fill-rule:evenodd;stroke:#000000;stroke-width:0.5;stroke-linecap:round;stroke-linejoin:round;stroke-miterlimit:10;stroke-opacity:1;stroke-dasharray:none" /></g><g
                   transform="translate(562.56,611.35998)"
                   id="g84"><path
                     d="m 0,0 -1.92,0 3.68,13.92 0.96,-2.08 -0.16,-0.16 0,-0.32 -0.16,-0.48 0,-0.32 0,-0.32 L 2.24,9.76 2.08,9.44 2.08,9.12 0,0 z"
                     inkscape:connector-curvature="0"
                     id="path86"
                     style="fill:#000000;fill-opacity:1;fill-rule:evenodd;stroke:#000000;stroke-width:0.5;stroke-linecap:round;stroke-linejoin:round;stroke-miterlimit:10;stroke-opacity:1;stroke-dasharray:none" /></g><g
                   transform="translate(570.71997,611.20001)"
                   id="g88"><path
                     d="m 0,0 -2.24,0.16 -2.72,9.28 0,0.16 0,0.16 0,0.32 -0.16,0.32 -0.16,0.48 -0.16,0.64 0,0.48 -0.96,2.08 1.92,-0.16 2.88,-10.56 0,-0.16 0.16,-0.32 0,-0.32 L -1.28,2.24 -1.12,1.76 0,0 z"
                     inkscape:connector-curvature="0"
                     id="path90"
                     style="fill:#000000;fill-opacity:1;fill-rule:evenodd;stroke:#000000;stroke-width:0.5;stroke-linecap:round;stroke-linejoin:round;stroke-miterlimit:10;stroke-opacity:1;stroke-dasharray:none" /></g><g
                   transform="translate(570.71997,611.20001)"
                   id="g92"><path
                     d="m 0,0 -1.12,1.76 0,0 0,0.32 0.16,0.32 0,0.48 0.16,0.48 3.04,10.56 0.8,-1.92 0,0 0,-0.48 -0.16,-0.32 0,-0.32 -0.16,-0.32 0,-0.48 L 2.56,9.76 2.56,9.44 2.4,8.96 2.4,8.64 2.24,8.16 2.24,7.84 2.08,7.52 1.92,7.04 0,0 z"
                     inkscape:connector-curvature="0"
                     id="path94"
                     style="fill:#000000;fill-opacity:1;fill-rule:evenodd;stroke:#000000;stroke-width:0.5;stroke-linecap:round;stroke-linejoin:round;stroke-miterlimit:10;stroke-opacity:1;stroke-dasharray:none" /></g><g
                   transform="translate(578.40002,611.20001)"
                   id="g96"><path
                     d="M 0,0 -1.76,0 -4,8.96 l 0,0 0,0.32 -0.16,0.48 -0.16,0.32 0,0.48 -0.16,0.32 0,0.32 -0.16,0.32 0,0.48 -0.8,1.92 1.76,0 L 0,0 z"
                     inkscape:connector-curvature="0"
                     id="path98"
                     style="fill:#000000;fill-opacity:1;fill-rule:evenodd;stroke:#000000;stroke-width:0.5;stroke-linecap:round;stroke-linejoin:round;stroke-miterlimit:10;stroke-opacity:1;stroke-dasharray:none" /></g><g
                   transform="translate(581.76001,613.91998)"
                   id="g100"><path
                     d="m 0,0 -0.32,0.32 -0.32,0.16 -0.32,0.16 0,1.6 0,0 L -0.64,2.08 -0.32,1.92 0.16,1.76 0.48,1.6 0.8,1.28 0.96,1.28 1.28,1.12 1.6,0.8 1.92,0.64 2.24,0.32 2.4,0.16 0,0 z"
                     inkscape:connector-curvature="0"
                     id="path102"
                     style="fill:#000000;fill-opacity:1;fill-rule:evenodd;stroke:#000000;stroke-width:0.5;stroke-linecap:round;stroke-linejoin:round;stroke-miterlimit:10;stroke-opacity:1;stroke-dasharray:none" /></g><g
                   transform="translate(585.91998,611.03998)"
                   id="g104"><path
                     d="m 0,0 -1.12,0 0,0 -0.16,0.32 -0.32,0.32 -0.16,0.32 -0.32,0.32 -0.16,0.32 -0.32,0.16 -0.32,0.32 -0.32,0.16 -0.32,0.32 -0.16,0.16 -0.48,0.16 2.4,0.16 0,10.88 1.76,0 L 0,0 z"
                     inkscape:connector-curvature="0"
                     id="path106"
                     style="fill:#000000;fill-opacity:1;fill-rule:evenodd;stroke:#000000;stroke-width:0.5;stroke-linecap:round;stroke-linejoin:round;stroke-miterlimit:10;stroke-opacity:1;stroke-dasharray:none" /></g><g
                   transform="translate(277.12,965.44)"
                   id="g108"><path
                     d="m 0,0 -1.76,0 3.68,13.92 0.8,-2.08 0,-0.16 0,-0.32 -0.16,-0.32 0,-0.48 L 2.4,10.24 2.4,9.92 2.24,9.44 2.24,9.12 0,0 z"
                     inkscape:connector-curvature="0"
                     id="path110"
                     style="fill:#000000;fill-opacity:1;fill-rule:evenodd;stroke:#000000;stroke-width:0.5;stroke-linecap:round;stroke-linejoin:round;stroke-miterlimit:10;stroke-opacity:1;stroke-dasharray:none" /></g><g
                   transform="translate(285.28,965.28003)"
                   id="g112"><path
                     d="m 0,0 -2.08,0.16 -2.72,9.28 0,0.16 0,0.16 -0.16,0.32 0,0.32 -0.16,0.48 -0.16,0.64 -0.16,0.48 -0.8,2.08 1.76,-0.16 3.04,-10.56 0,0 0,-0.48 0.16,-0.32 0.16,-0.32 0,-0.48 L 0,0 z"
                     inkscape:connector-curvature="0"
                     id="path114"
                     style="fill:#000000;fill-opacity:1;fill-rule:evenodd;stroke:#000000;stroke-width:0.5;stroke-linecap:round;stroke-linejoin:round;stroke-miterlimit:10;stroke-opacity:1;stroke-dasharray:none" /></g><g
                   transform="translate(285.28,965.28003)"
                   id="g116"><path
                     d="m 0,0 -1.12,1.76 0,0 0.16,0.32 0,0.32 0.16,0.48 0.16,0.48 2.88,10.56 0.96,-1.92 0,0 -0.16,-0.48 0,-0.32 -0.16,-0.32 0,-0.32 0,-0.48 L 2.72,9.76 2.72,9.44 2.56,8.96 2.4,8.64 2.4,8.32 2.24,7.84 2.24,7.52 2.08,7.04 0,0 z"
                     inkscape:connector-curvature="0"
                     id="path118"
                     style="fill:#000000;fill-opacity:1;fill-rule:evenodd;stroke:#000000;stroke-width:0.5;stroke-linecap:round;stroke-linejoin:round;stroke-miterlimit:10;stroke-opacity:1;stroke-dasharray:none" /></g><g
                   transform="translate(293.12,965.28003)"
                   id="g120"><path
                     d="M 0,0 -1.76,0 -4,8.96 l 0,0 -0.16,0.32 0,0.48 -0.16,0.32 0,0.48 -0.16,0.32 -0.16,0.32 0,0.48 0,0.32 -0.96,1.92 1.76,0 L 0,0 z"
                     inkscape:connector-curvature="0"
                     id="path122"
                     style="fill:#000000;fill-opacity:1;fill-rule:evenodd;stroke:#000000;stroke-width:0.5;stroke-linecap:round;stroke-linejoin:round;stroke-miterlimit:10;stroke-opacity:1;stroke-dasharray:none" /></g><g
                   transform="translate(302.23999,966.40002)"
                   id="g124"><path
                     d="m 0,0 -3.52,0.16 0.16,0 0.48,0 0.32,0.16 0.32,0 0.32,0.16 0.32,0.32 0,0 0.32,0.32 0.16,0.32 0.16,0.32 0,0.32 0,0.48 0,0.16 0,0.32 -0.16,0.48 -0.16,0.32 -0.16,0.32 -0.32,0.32 0,0 L -1.92,4.8 -2.08,4.96 -2.24,5.12 -2.56,5.44 -2.72,5.76 -3.04,5.92 -3.36,6.24 -3.68,6.56 -4,6.88 -4.32,7.2 -4.8,7.52 -5.12,7.84 -5.44,8.16 -5.76,8.32 -6.08,8.64 -6.24,8.96 -6.56,9.12 -6.72,9.44 -7.04,9.6 -7.2,9.92 l -0.16,0.32 -0.32,0.32 -0.16,0.32 -0.16,0.32 -0.16,0.32 0,0 0,0.48 -0.16,0.32 0,0.32 9.12,0 0,-1.76 -6.72,0.16 0,0 0.16,-0.32 0.32,-0.32 0.16,-0.32 L -5.12,9.92 -4.96,9.76 -4.64,9.6 -4.32,9.28 -4,8.96 -3.68,8.64 -3.2,8.32 -3.2,8.16 -2.72,7.84 -2.4,7.52 -2.08,7.36 -1.76,7.04 -1.44,6.72 -1.28,6.56 -0.96,6.24 -0.8,6.08 -0.64,5.92 -0.48,5.76 -0.32,5.44 0,5.12 0.16,4.8 0.32,4.48 0.48,4.16 0.48,4 0.64,3.68 0.8,3.2 0.8,2.88 0.8,2.56 0.8,2.4 0.8,2.08 0.8,1.6 0.64,1.28 0.48,0.96 0.32,0.64 0.16,0.32 0,0 z"
                     inkscape:connector-curvature="0"
                     id="path126"
                     style="fill:#000000;fill-opacity:1;fill-rule:evenodd;stroke:#000000;stroke-width:0.5;stroke-linecap:round;stroke-linejoin:round;stroke-miterlimit:10;stroke-opacity:1;stroke-dasharray:none" /></g><g
                   transform="translate(298.72,965.12)"
                   id="g128"><path
                     d="M 0,0 -0.32,0 -0.8,0 -1.12,0.16 -1.6,0.16 -1.92,0.32 -2.24,0.48 -2.56,0.64 -2.88,0.8 -3.04,1.12 -3.36,1.28 -3.52,1.6 -3.84,1.76 -4,2.08 l -0.16,0.48 0,0.32 -0.16,0.32 -0.16,0.48 0,0.32 1.76,0.16 0,-0.32 0.16,-0.48 0,-0.32 L -2.4,2.72 -2.24,2.4 -1.92,2.24 -1.76,1.92 -1.44,1.76 -1.12,1.6 -0.8,1.44 -0.48,1.44 0,1.44 3.52,1.28 3.2,1.12 3.2,0.96 2.88,0.8 2.56,0.64 2.24,0.48 1.92,0.32 1.6,0.16 1.28,0.16 0.8,0 0.48,0 0,0 z"
                     inkscape:connector-curvature="0"
                     id="path130"
                     style="fill:#000000;fill-opacity:1;fill-rule:evenodd;stroke:#000000;stroke-width:0.5;stroke-linecap:round;stroke-linejoin:round;stroke-miterlimit:10;stroke-opacity:1;stroke-dasharray:none" /></g><g
                   transform="translate(423.35999,675.20001)"
                   id="g132"><path
                     d="m 0,0 -0.32,0 -0.32,0.16 -3.2,0 0.16,0.32 0.32,0.16 0.32,0.16 0,0.16 0.32,0.16 0.32,0.16 0.48,0 0.32,0.16 0.32,0 0.48,0 0,0 0.32,0 L 0,1.44 0.32,1.28 0.64,1.12 0.96,0.96 1.28,0.8 1.44,0.48 1.76,0.32 1.92,0 0,0 z"
                     inkscape:connector-curvature="0"
                     id="path134"
                     style="fill:#000000;fill-opacity:1;fill-rule:evenodd;stroke:#000000;stroke-width:0.5;stroke-linecap:round;stroke-linejoin:round;stroke-miterlimit:10;stroke-opacity:1;stroke-dasharray:none" /></g><g
                   transform="translate(422.39999,666.23999)"
                   id="g136"><path
                     d="M 0,0 0,0 -0.48,0 -0.8,0 -1.12,0.16 -1.6,0.32 -1.92,0.48 -2.24,0.64 -2.4,0.8 -2.56,0.96 -2.88,1.28 -3.2,1.44 l -0.16,0.32 -0.16,0.48 -0.16,0.32 0,0 -0.16,0.48 -0.16,0.32 0,0.32 -0.16,0.48 0,0.32 0,0.32 0,0.48 0,0.16 0,0.32 0,0.48 0,0.32 0.16,0.48 0,0.32 0.16,0.32 0.16,0.32 0.16,0.16 0.16,0.32 0.16,0.32 0.32,0.32 3.2,0 L 0,8.96 -0.48,8.96 -0.8,8.8 -1.12,8.64 -1.44,8.48 -1.6,8.16 l 0,0 -0.32,-0.32 -0.16,-0.32 -0.16,-0.32 0,-0.32 -0.16,-0.32 0,-0.48 0,-0.32 0,-0.48 0,-0.16 0,-0.48 0,-0.32 0,-0.48 0.16,-0.32 0,-0.32 0.16,-0.32 0.16,-0.32 0.16,-0.32 0.32,-0.16 0.32,-0.32 0.32,-0.16 0.32,-0.16 0.32,0 0.32,0 2.56,-0.16 0,0 L 2.56,0.96 2.24,0.8 1.92,0.48 1.6,0.32 1.44,0.32 1.12,0.16 0.8,0 0.48,0 0,0 z"
                     inkscape:connector-curvature="0"
                     id="path138"
                     style="fill:#000000;fill-opacity:1;fill-rule:evenodd;stroke:#000000;stroke-width:0.5;stroke-linecap:round;stroke-linejoin:round;stroke-miterlimit:10;stroke-opacity:1;stroke-dasharray:none" /></g><g
                   transform="translate(426.88,662.56)"
                   id="g140"><path
                     d="m 0,0 -1.76,0 0,4.96 -2.56,0.16 0,0 0.48,0 0.32,0 0.32,0.16 0.32,0.16 0.32,0.32 0.16,0.16 0.16,0.16 0.16,0.32 0.16,0.16 0.16,0.32 0,0.48 0.16,0.32 0,0.32 0,0.48 0,0.48 0,0.48 0,0.32 0,0.48 -0.16,0.32 0,0.32 -0.16,0.32 -0.16,0.32 -0.16,0.32 -0.32,0.16 -0.32,0.32 -0.32,0.16 -0.32,0.16 1.92,0 0,1.28 L 0,13.76 0,0 z"
                     inkscape:connector-curvature="0"
                     id="path142"
                     style="fill:#000000;fill-opacity:1;fill-rule:evenodd;stroke:#000000;stroke-width:0.5;stroke-linecap:round;stroke-linejoin:round;stroke-miterlimit:10;stroke-opacity:1;stroke-dasharray:none" /></g><g
                   id="g144"><path
                     d="m 346.72,598.71997 -1.76001,0.16003 0.16001,0.15998 2.39999,-0.15998 0,0 -0.31998,0 -0.48001,-0.16003 z"
                     inkscape:connector-curvature="0"
                     id="path146"
                     style="fill:#000000;fill-opacity:1;fill-rule:evenodd;stroke:#000000;stroke-width:0.5;stroke-linecap:round;stroke-linejoin:round;stroke-miterlimit:10;stroke-opacity:1;stroke-dasharray:none" /></g><g
                   transform="translate(347.84,589.76001)"
                   id="g148"><path
                     d="m 0,0 -0.32,0 -0.32,0 -0.32,0.16 -0.32,0.16 -0.32,0.16 -0.32,0.16 -0.32,0.16 -0.32,0.32 -0.16,0.32 2.56,0 0.32,0 0.32,0 0.32,0.16 0.32,0.16 0.32,0.32 0.32,0.16 0,0.16 0.16,0.16 0.16,0.32 0.16,0.32 0,0.32 0.16,0.32 0,0.48 0,0.48 0,0.48 0,0 0,0.48 0,0.32 0,0.48 L 2.24,6.88 2.08,7.2 2.08,7.52 1.92,7.84 1.6,8.16 1.44,8.48 1.12,8.64 0.8,8.8 0.48,8.96 0.16,9.12 l -0.48,0 -2.4,0.16 0.32,0.32 0.16,0.32 0.32,0.16 0.32,0.16 0.32,0.16 0.32,0 0.48,0.16 0.32,0 0.16,0 0.32,-0.16 0.48,0 0.32,-0.16 0.32,0 L 1.76,10.08 2.08,9.76 2.4,9.6 2.72,9.28 2.88,9.12 3.04,8.96 3.2,8.64 3.36,8.48 3.52,8.16 3.68,7.84 3.84,7.52 4,7.04 4,6.72 4.16,6.4 l 0,-0.48 0,-0.48 0,-0.32 0,-0.16 0,-0.48 0,-0.32 0,-0.48 L 4,3.36 3.84,3.04 3.84,2.72 3.68,2.4 3.52,1.92 3.36,1.6 3.04,1.44 2.88,1.28 2.72,0.96 2.4,0.8 2.08,0.48 1.76,0.32 1.44,0.32 1.12,0.16 0.8,0 0.32,0 0,0 z"
                     inkscape:connector-curvature="0"
                     id="path150"
                     style="fill:#000000;fill-opacity:1;fill-rule:evenodd;stroke:#000000;stroke-width:0.5;stroke-linecap:round;stroke-linejoin:round;stroke-miterlimit:10;stroke-opacity:1;stroke-dasharray:none" /></g><g
                   transform="translate(345.12,586.23999)"
                   id="g152"><path
                     d="m 0,0 -1.76,0 0,13.92 1.6,-0.16 0,-1.12 L 1.6,12.48 1.28,12.32 1.12,12.16 0.8,12 0.48,11.68 0.32,11.36 l 0,0 L 0.16,11.04 0,10.72 0,10.4 l -0.16,-0.32 0,-0.32 0,-0.48 0,-0.48 0,-0.48 0,-0.48 0,-0.32 L 0,7.2 0.16,6.72 0.16,6.4 0.48,6.24 0.64,5.92 0.8,5.6 1.12,5.44 1.44,5.12 l 0.32,0 0.48,-0.16 0.32,0 L 0,4.96 0,0 z"
                     inkscape:connector-curvature="0"
                     id="path154"
                     style="fill:#000000;fill-opacity:1;fill-rule:evenodd;stroke:#000000;stroke-width:0.5;stroke-linecap:round;stroke-linejoin:round;stroke-miterlimit:10;stroke-opacity:1;stroke-dasharray:none" /></g><g
                   id="g156"><path
                     d="m 511.67999,546.71997 -0.32,0.16003 -0.47999,0 -0.32,0 2.88,0.15998 0.32001,-0.32001 -2.08002,0 z"
                     inkscape:connector-curvature="0"
                     id="path158"
                     style="fill:#000000;fill-opacity:1;fill-rule:evenodd;stroke:#000000;stroke-width:0.5;stroke-linecap:round;stroke-linejoin:round;stroke-miterlimit:10;stroke-opacity:1;stroke-dasharray:none" /></g><g
                   transform="translate(508.16,542.88)"
                   id="g160"><path
                     d="m 0,0 -0.32,0.16 -0.16,0.16 -0.16,0.16 -0.32,0.32 -0.16,0.32 -0.16,0.32 -0.16,0.32 0,0.32 0,0.48 0,0 0,0.48 0,0.32 0.16,0.32 0.16,0.32 0.32,0.32 0.16,0.32 0.16,0 0.16,0.16 0.32,0.16 0.32,0.16 0.32,0.16 0.48,0 0.32,0 0.48,0 0,0 0.48,0 0.32,0 0.32,0 L 3.52,5.12 3.84,4.96 4,4.96 4.32,4.8 4.64,4.64 4.96,4.32 5.28,4.16 2.4,4 2.24,4 1.76,4 1.44,3.84 1.12,3.84 0.8,3.52 0.64,3.52 0.48,3.2 0.32,2.88 l 0,-0.48 0,0 0,-0.48 0.16,-0.32 0.16,0 0.32,-0.32 0.32,-0.16 0.16,-0.16 0.32,0 0.48,-0.16 0.48,-0.16 0.16,0 0.48,0 0.48,-0.16 0.32,0 0.48,-0.16 0.32,-0.16 0.32,0 L 5.44,0 0,0 z"
                     inkscape:connector-curvature="0"
                     id="path162"
                     style="fill:#000000;fill-opacity:1;fill-rule:evenodd;stroke:#000000;stroke-width:0.5;stroke-linecap:round;stroke-linejoin:round;stroke-miterlimit:10;stroke-opacity:1;stroke-dasharray:none" /></g><g
                   transform="translate(507.67999,539.20001)"
                   id="g164"><path
                     d="M 0,0 -0.16,0.16 -0.32,0.48 -0.48,0.8 -0.64,1.28 -0.8,1.6 0.96,1.92 0.96,1.6 1.12,1.28 1.28,0.8 1.6,0.64 1.76,0.32 2.08,0.16 2.24,0.16 2.72,0 3.04,0 3.52,0 0,0 z"
                     inkscape:connector-curvature="0"
                     id="path166"
                     style="fill:#000000;fill-opacity:1;fill-rule:evenodd;stroke:#000000;stroke-width:0.5;stroke-linecap:round;stroke-linejoin:round;stroke-miterlimit:10;stroke-opacity:1;stroke-dasharray:none" /></g><g
                   transform="translate(511.51999,537.76001)"
                   id="g168"><path
                     d="m 0,0 0,0 -0.48,0 -0.32,0 -0.48,0 -0.32,0.16 -0.32,0 -0.32,0.16 -0.32,0.16 -0.48,0.16 -0.32,0.16 -0.16,0.32 -0.32,0.32 3.52,0 0.32,0 0.32,0 0.48,0 0.32,0.16 0.32,0.16 0.16,0.16 0.16,0 0.16,0.32 0.16,0.32 0,0.32 0,0.48 0,0 0,0.48 0,0 -0.16,0 L 1.6,4 1.28,4 0.8,4.16 0.48,4.16 0,4.32 l -0.48,0 -0.48,0.16 -0.48,0 -0.32,0.16 -0.32,0 -0.32,0.16 -0.16,0 -0.48,0.16 -0.32,0.16 5.44,0 0,0.64 0,0.32 0,0.32 0,0.48 -0.16,0.32 0,0.32 L 1.76,7.68 1.6,8 1.28,8.16 1.12,8.48 0.8,8.64 0.48,8.8 0.16,8.96 l 2.08,0 0,0.16 0.16,0.32 0,0.48 0.16,0.32 1.76,0 0,-0.16 L 4.16,9.76 4,9.28 4,8.96 4,8.8 3.84,8.64 l 0,-0.32 0,-0.32 0,-0.48 0,-0.48 0,-0.48 0,-0.64 0,-2.24 0,0 0,-0.48 0,-0.48 0,-0.32 0,-0.32 L 3.68,1.92 3.68,1.6 3.36,1.28 3.2,0.96 3.04,0.8 2.72,0.64 2.4,0.32 2.08,0.16 1.92,0.16 1.6,0.16 1.28,0 0.8,0 0.48,0 0,0 z"
                     inkscape:connector-curvature="0"
                     id="path170"
                     style="fill:#000000;fill-opacity:1;fill-rule:evenodd;stroke:#000000;stroke-width:0.5;stroke-linecap:round;stroke-linejoin:round;stroke-miterlimit:10;stroke-opacity:1;stroke-dasharray:none" /></g><g
                   transform="translate(495.20001,546.56)"
                   id="g172"><path
                     d="M 0,0 -0.16,0 -0.48,0 -0.8,0 -1.28,0.16 -1.6,0.32 -1.92,0.48 -2.24,0.64 -2.56,0.8 l -0.16,0.32 -0.32,0.32 2.72,0 0.16,0 0.48,0 0.32,0.16 0.32,0.16 0.16,0.16 0.16,0.16 0.16,0.16 0.16,0.32 0,0.32 0.16,0.48 0,0.48 0,6.4 1.76,0 0,-6.4 -0.16,-0.48 0,-0.48 0,-0.32 0,-0.48 L 3.2,1.76 3.04,1.6 3.04,1.44 2.72,1.12 2.56,0.8 2.24,0.48 1.92,0.32 1.76,0.32 1.44,0.16 1.12,0 0.8,0 0.32,0 0,0 z"
                     inkscape:connector-curvature="0"
                     id="path174"
                     style="fill:#000000;fill-opacity:1;fill-rule:evenodd;stroke:#000000;stroke-width:0.5;stroke-linecap:round;stroke-linejoin:round;stroke-miterlimit:10;stroke-opacity:1;stroke-dasharray:none" /></g><g
                   transform="translate(492.16,542.88)"
                   id="g176"><path
                     d="m 0,0 -1.76,0.16 0,13.76 1.76,0 L 0,8.48 0,8 0,7.52 0.16,7.2 0.16,6.88 0.32,6.56 0.48,6.24 0.64,5.92 0.96,5.76 1.28,5.44 1.6,5.28 l 0.32,0 0.32,-0.16 0.48,0 L 0,5.12 0,0 z"
                     inkscape:connector-curvature="0"
                     id="path178"
                     style="fill:#000000;fill-opacity:1;fill-rule:evenodd;stroke:#000000;stroke-width:0.5;stroke-linecap:round;stroke-linejoin:round;stroke-miterlimit:10;stroke-opacity:1;stroke-dasharray:none" /></g><g
                   transform="translate(419.51999,488.79999)"
                   id="g180"><path
                     d="m 0,0 0,0.16 -0.16,0.32 -0.16,0.48 0,0.32 L -0.64,1.6 -0.8,1.92 -0.96,2.24 -1.12,2.56 -1.44,2.72 -1.6,2.88 -1.92,3.04 -2.24,3.2 -2.56,3.36 -2.88,3.52 -3.2,3.52 -3.68,3.68 -4,3.68 0,3.84 0.16,3.52 0.48,3.36 0.64,3.04 0.96,2.72 1.12,2.4 1.28,2.08 1.44,1.76 1.6,1.28 1.76,0.96 1.76,0.48 0,0 z"
                     inkscape:connector-curvature="0"
                     id="path182"
                     style="fill:#000000;fill-opacity:1;fill-rule:evenodd;stroke:#000000;stroke-width:0.5;stroke-linecap:round;stroke-linejoin:round;stroke-miterlimit:10;stroke-opacity:1;stroke-dasharray:none" /></g><g
                   transform="translate(419.67999,481.12)"
                   id="g184"><path
                     d="m 0,0 -4.16,0.16 0.32,0 0.32,0 0.48,0 0.32,0.16 0.32,0.16 0.32,0.16 0.32,0.16 0.16,0.16 0.32,0.32 0.16,0.32 0.32,0.32 0.16,0.32 0.16,0.32 0.16,0.48 L 1.44,2.56 1.28,2.24 1.28,1.92 1.12,1.6 0.96,1.28 0.64,0.96 0.48,0.64 0.32,0.32 0,0 z"
                     inkscape:connector-curvature="0"
                     id="path186"
                     style="fill:#000000;fill-opacity:1;fill-rule:evenodd;stroke:#000000;stroke-width:0.5;stroke-linecap:round;stroke-linejoin:round;stroke-miterlimit:10;stroke-opacity:1;stroke-dasharray:none" /></g><g
                   transform="translate(415.67999,479.67999)"
                   id="g188"><path
                     d="m 0,0 -0.16,0 -0.32,0 -0.48,0 -0.32,0.16 -0.32,0 -0.48,0.16 -0.32,0.16 -0.32,0.16 -0.32,0 -0.32,0.32 0,0 L -3.68,1.12 -4,1.28 -4.32,1.6 -4.64,1.76 -4.96,2.08 -5.12,2.4 -5.28,2.72 -5.6,3.04 l -0.16,0.32 0,0.16 -0.16,0.32 -0.16,0.32 -0.16,0.32 0,0.32 -0.16,0.32 0,0.48 -0.16,0.32 0,0.48 0,0.32 0,0.48 0,0.32 0,0.48 0,0.32 0.16,0.32 0,0.48 0,0.32 0.16,0.32 0.16,0.48 0.16,0.32 0,0.32 0.16,0 0.16,0.32 0.16,0.48 0.16,0.32 0.16,0.32 0.32,0.16 0.16,0.32 0.32,0.32 0.32,0.16 0.32,0.16 0,0 0.32,0.16 0.32,0.16 0.32,0.16 0.32,0.16 0.32,0 0.32,0.16 0.48,0 0.32,0.16 0.48,0 0.48,0 0.16,0 0.32,-0.16 0.48,0 0.32,0 0.32,-0.16 0.32,-0.16 0.48,0 0.32,-0.16 0.32,-0.16 0.32,-0.32 0.16,-0.16 0.32,-0.16 -4,-0.16 -0.32,0 -0.32,0 -0.32,-0.16 -0.48,0 L -1.92,12.48 -2.24,12.32 -2.56,12.16 -2.88,12 -3.2,11.84 -3.36,11.52 -3.68,11.2 -3.84,10.88 -4,10.56 l -0.16,-0.32 0,-0.16 -0.16,-0.32 -0.16,-0.32 0,-0.32 -0.16,-0.32 0,-0.48 0,-0.32 0,-0.48 0,-0.32 0,-0.16 0,-0.32 0,-0.32 0,-0.48 0.16,-0.32 0,-0.32 0.16,-0.48 0,-0.32 L -4.16,4.16 -4,3.84 -3.84,3.52 -3.52,3.2 -3.36,2.88 -3.04,2.56 -2.72,2.4 -2.56,2.24 -2.24,2.08 -1.92,1.92 -1.6,1.76 l 0.32,0 0.32,-0.16 0.48,0 0.32,0 L 4,1.44 3.68,1.28 3.52,0.96 3.2,0.8 2.88,0.64 2.56,0.48 2.24,0.32 1.92,0.32 1.6,0.16 1.12,0.16 0.8,0 0.32,0 0,0 z"
                     inkscape:connector-curvature="0"
                     id="path190"
                     style="fill:#000000;fill-opacity:1;fill-rule:evenodd;stroke:#000000;stroke-width:0.5;stroke-linecap:round;stroke-linejoin:round;stroke-miterlimit:10;stroke-opacity:1;stroke-dasharray:none" /></g><g
                   transform="translate(369.44,1079.04)"
                   id="g192"><path
                     d="m 0,0 -1.76,0.16 3.68,13.76 0.8,-1.92 0,-0.32 0,-0.32 -0.16,-0.32 0,-0.48 L 2.4,10.24 2.4,9.92 2.24,9.44 2.24,9.12 0,0 z"
                     inkscape:connector-curvature="0"
                     id="path194"
                     style="fill:#000000;fill-opacity:1;fill-rule:evenodd;stroke:#000000;stroke-width:0.5;stroke-linecap:round;stroke-linejoin:round;stroke-miterlimit:10;stroke-opacity:1;stroke-dasharray:none" /></g><g
                   transform="translate(377.76001,1079.04)"
                   id="g196"><path
                     d="m 0,0 -2.24,0 -2.72,9.44 0,0 0,0.32 -0.16,0.16 0,0.48 -0.16,0.48 -0.16,0.48 -0.16,0.64 -0.8,1.92 1.76,0 3.04,-10.72 0,0 0.16,-0.32 0,-0.48 0.16,-0.32 0,-0.48 L 0,0 z"
                     inkscape:connector-curvature="0"
                     id="path198"
                     style="fill:#000000;fill-opacity:1;fill-rule:evenodd;stroke:#000000;stroke-width:0.5;stroke-linecap:round;stroke-linejoin:round;stroke-miterlimit:10;stroke-opacity:1;stroke-dasharray:none" /></g><g
                   transform="translate(377.76001,1079.04)"
                   id="g200"><path
                     d="m 0,0 -1.28,1.6 0,0.16 0.16,0.16 0,0.32 0.16,0.48 0.16,0.48 2.88,10.56 0.96,-1.92 0,0 -0.16,-0.32 0,-0.48 0,-0.32 -0.16,-0.32 0,-0.32 L 2.56,9.6 2.56,9.28 2.4,8.96 2.4,8.48 2.24,8.16 2.08,7.68 2.08,7.36 1.92,6.88 0,0 z"
                     inkscape:connector-curvature="0"
                     id="path202"
                     style="fill:#000000;fill-opacity:1;fill-rule:evenodd;stroke:#000000;stroke-width:0.5;stroke-linecap:round;stroke-linejoin:round;stroke-miterlimit:10;stroke-opacity:1;stroke-dasharray:none" /></g><g
                   transform="translate(385.44,1078.88)"
                   id="g204"><path
                     d="M 0,0 -1.76,0 -4,8.96 l 0,0 -0.16,0.48 0,0.32 -0.16,0.48 0,0.32 -0.16,0.32 0,0.48 -0.16,0.32 0,0.32 -0.96,1.92 1.76,0 L 0,0 z"
                     inkscape:connector-curvature="0"
                     id="path206"
                     style="fill:#000000;fill-opacity:1;fill-rule:evenodd;stroke:#000000;stroke-width:0.5;stroke-linecap:round;stroke-linejoin:round;stroke-miterlimit:10;stroke-opacity:1;stroke-dasharray:none" /></g><g
                   id="g208"><path
                     d="m 391.67999,1088.48 0,-1.76 5.28,0 0,1.76 -5.28,0 z"
                     inkscape:connector-curvature="0"
                     id="path210"
                     style="fill:#000000;fill-opacity:1;fill-rule:evenodd;stroke:#000000;stroke-width:0.5;stroke-linecap:round;stroke-linejoin:round;stroke-miterlimit:10;stroke-opacity:1;stroke-dasharray:none" /></g><g
                   transform="translate(405.12,1080)"
                   id="g212"><path
                     d="m 0,0 -0.16,0.32 -0.32,0.32 -0.16,0.32 -0.16,0.32 -0.16,0.32 0,0.16 -0.16,0.32 0,0.32 0,0.32 -0.16,0.48 0,0.32 0,0.32 -0.16,0.48 0,0.48 0,0.32 0,0.48 0,0.32 0,0.48 0,0.48 0.16,0.48 0,0.32 0,0.48 0.16,0.32 0,0.48 0.16,0.32 0,0.32 0.16,0.32 0.16,0.32 0.16,0.32 0.16,0.16 0.16,0.32 0.16,0.16 0.16,0.16 2.88,-0.16 -0.16,0 -0.32,0 L 2.24,11.04 1.92,10.88 1.6,10.72 1.44,10.4 1.12,10.08 l 0,0 L 0.96,9.92 0.8,9.6 0.8,9.44 0.64,9.12 0.64,8.8 0.48,8.48 0.48,8 0.48,7.68 0.32,7.2 l 0,-0.48 0,-0.48 0,-0.64 0,-0.32 0,-0.48 0,-0.48 0.16,-0.48 0,-0.48 0,-0.32 0.16,-0.48 0,-0.32 L 0.8,1.92 0.8,1.6 0.96,1.44 1.12,1.12 1.28,0.96 1.44,0.64 1.76,0.32 2.08,0.16 2.4,0 2.72,0 3.04,-0.16 0,0 z"
                     inkscape:connector-curvature="0"
                     id="path214"
                     style="fill:#000000;fill-opacity:1;fill-rule:evenodd;stroke:#000000;stroke-width:0.5;stroke-linecap:round;stroke-linejoin:round;stroke-miterlimit:10;stroke-opacity:1;stroke-dasharray:none" /></g><g
                   transform="translate(408.16,1078.5601)"
                   id="g216"><path
                     d="m 0,0 0,0 -0.48,0 -0.32,0 -0.32,0.16 -0.32,0 -0.48,0.16 -0.16,0.32 -0.32,0.16 -0.16,0 -0.16,0.32 -0.32,0.32 3.04,-0.16 0.16,0 0.32,0.16 0.48,0 0.16,0.16 0.32,0.32 0.32,0.16 0.32,0.32 0,0.16 0.16,0.16 0,0.16 0.16,0.32 0.16,0.32 0,0.32 0,0.32 0.16,0.48 0,0.32 0,0.48 0.16,0.48 0,0.48 0,0.64 0,0.16 0,0.48 0,0.48 -0.16,0.48 0,0.48 0,0.32 -0.16,0.48 0,0.32 -0.16,0.32 0,0.32 -0.16,0.16 -0.16,0.32 0,0.16 L 1.92,11.68 1.6,12 1.44,12.16 1.12,12.48 0.8,12.64 l -0.32,0 -0.48,0 -2.88,0.16 0.16,0.32 0.32,0.32 0.32,0.16 0.32,0.16 0.32,0.16 0.32,0 0.32,0.16 0.48,0 0.32,0 0.16,0 0.32,0 0.48,0 L 1.28,13.92 1.6,13.76 1.92,13.6 2.24,13.44 2.56,13.28 2.72,13.12 2.88,12.96 3.2,12.64 3.36,12.32 3.52,12 3.84,11.68 4,11.36 l 0,-0.48 0.16,-0.16 0,-0.16 0.16,-0.32 0,-0.48 0.16,-0.32 0,-0.32 0,-0.48 0,-0.32 0,-0.48 0.16,-0.48 0,-0.48 0,-0.16 0,-0.48 -0.16,-0.48 0,-0.32 0,-0.48 0,-0.32 L 4.32,4.32 4.32,4 4.32,3.68 4.16,3.36 4,2.88 3.84,2.56 3.68,2.24 3.52,1.92 3.36,1.6 l 0,0 L 3.2,1.28 2.88,0.96 2.56,0.8 2.4,0.48 2.08,0.32 1.92,0.32 1.6,0.16 1.28,0 0.8,0 0.48,0 0,0 z"
                     inkscape:connector-curvature="0"
                     id="path218"
                     style="fill:#000000;fill-opacity:1;fill-rule:evenodd;stroke:#000000;stroke-width:0.5;stroke-linecap:round;stroke-linejoin:round;stroke-miterlimit:10;stroke-opacity:1;stroke-dasharray:none" /></g><g
                   transform="translate(415.51999,1079.2)"
                   id="g220"><path
                     d="m 0,0 -0.16,0.16 -0.32,0.32 0,0.48 -0.16,0.32 0,0.32 0,0.32 0,0.32 0.16,0.32 0.16,0.32 0.16,0.32 0.32,0.32 0.16,0.16 0.32,0.16 0.32,0.16 0.32,0.16 0.32,0 0.32,0 0.32,0 0.32,0 L 2.88,4 3.2,3.84 3.52,3.68 3.84,3.36 4,3.36 1.92,3.2 l 0,0 -0.48,0 L 1.12,3.04 0.8,2.72 l 0,0 L 0.48,2.4 0.48,2.08 0.32,1.6 0.32,1.44 0.48,1.12 0.64,0.8 0.8,0.48 0.96,0.48 1.28,0.16 1.6,0 1.92,0 0,0 z"
                     inkscape:connector-curvature="0"
                     id="path222"
                     style="fill:#000000;fill-opacity:1;fill-rule:evenodd;stroke:#000000;stroke-width:0.5;stroke-linecap:round;stroke-linejoin:round;stroke-miterlimit:10;stroke-opacity:1;stroke-dasharray:none" /></g><g
                   transform="translate(417.44,1078.24)"
                   id="g224"><path
                     d="m 0,0 -0.16,0 -0.32,0 -0.32,0.16 -0.32,0.16 -0.32,0.16 -0.32,0.32 -0.16,0.16 1.92,0 0.16,0 0.32,0 0.48,0.16 0.16,0.32 0.16,0 0.16,0.32 0.16,0.48 0,0.32 0,0.16 0,0.32 -0.16,0.32 -0.32,0.32 0,0.16 L 0.8,4 0.48,4.16 0,4.16 2.08,4.32 2.24,4 2.4,3.68 2.56,3.36 2.72,2.88 2.72,2.56 2.72,2.4 2.56,1.92 2.56,1.6 2.4,1.28 2.24,0.96 1.92,0.64 1.76,0.48 1.44,0.32 1.12,0.16 0.8,0 0.48,0 0,0 z"
                     inkscape:connector-curvature="0"
                     id="path226"
                     style="fill:#000000;fill-opacity:1;fill-rule:evenodd;stroke:#000000;stroke-width:0.5;stroke-linecap:round;stroke-linejoin:round;stroke-miterlimit:10;stroke-opacity:1;stroke-dasharray:none" /></g><g
                   id="g228"><path
                     d="m 427.35999,1088 0,-1.76 5.28002,0 0,1.6 -5.28002,0.16 z"
                     inkscape:connector-curvature="0"
                     id="path230"
                     style="fill:#000000;fill-opacity:1;fill-rule:evenodd;stroke:#000000;stroke-width:0.5;stroke-linecap:round;stroke-linejoin:round;stroke-miterlimit:10;stroke-opacity:1;stroke-dasharray:none" /></g><g
                   transform="translate(450.23999,1077.92)"
                   id="g232"><path
                     d="m 0,0 -10.08,0.16 0,13.92 10.4,-0.16 0,-1.6 -8.64,0 0,-4.64 7.68,-0.16 0,-1.6 -7.68,0.16 0,-4.32 L 0,1.6 0,0 z"
                     inkscape:connector-curvature="0"
                     id="path234"
                     style="fill:#000000;fill-opacity:1;fill-rule:evenodd;stroke:#000000;stroke-width:0.5;stroke-linecap:round;stroke-linejoin:round;stroke-miterlimit:10;stroke-opacity:1;stroke-dasharray:none" /></g><g
                   id="g236"><path
                     d="m 710.56,736 -1.76001,0 0,10.88 -0.15998,3.03998 1.91999,0 0,-13.91998 z"
                     inkscape:connector-curvature="0"
                     id="path238"
                     style="fill:#000000;fill-opacity:1;fill-rule:evenodd;stroke:#000000;stroke-width:0.5;stroke-linecap:round;stroke-linejoin:round;stroke-miterlimit:10;stroke-opacity:1;stroke-dasharray:none" /></g><g
                   id="g240"><path
                     d="m 701.44,736.15997 -1.76001,0 0,13.92005 1.76001,-0.16004 0,-10.88 0,-2.88001 z"
                     inkscape:connector-curvature="0"
                     id="path242"
                     style="fill:#000000;fill-opacity:1;fill-rule:evenodd;stroke:#000000;stroke-width:0.5;stroke-linecap:round;stroke-linejoin:round;stroke-miterlimit:10;stroke-opacity:1;stroke-dasharray:none" /></g><g
                   id="g244"><path
                     d="m 701.44,736.15997 0,2.88001 7.20001,10.88 0.15998,-3.03998 -7.35999,-10.72003 z"
                     inkscape:connector-curvature="0"
                     id="path246"
                     style="fill:#000000;fill-opacity:1;fill-rule:evenodd;stroke:#000000;stroke-width:0.5;stroke-linecap:round;stroke-linejoin:round;stroke-miterlimit:10;stroke-opacity:1;stroke-dasharray:none" /></g><g
                   id="g248"><path
                     d="m 705.28003,772.96002 0,-13.76001 1.91998,0 0,13.76001 -1.91998,0 z"
                     inkscape:connector-curvature="0"
                     id="path250"
                     style="fill:#000000;fill-opacity:1;fill-rule:evenodd;stroke:#000000;stroke-width:0.5;stroke-linecap:round;stroke-linejoin:round;stroke-miterlimit:10;stroke-opacity:1;stroke-dasharray:none" /></g><g
                   transform="translate(700.32001,783.67999)"
                   id="g252"><path
                     d="m 0,0 -0.16,0.32 -0.16,0.32 -0.32,0.32 -0.16,0.48 0,0.32 -0.16,0.16 0,0.32 -0.16,0.32 0,0.32 -0.16,0.32 0,0.48 0,0.32 0,0.48 -0.16,0.32 0,0.48 0,0.48 0,0.32 0,0.48 0.16,0.48 0,0.32 0,0.48 0,0.48 0.16,0.32 0,0.32 0.16,0.48 0.16,0.32 0,0.32 0.16,0.32 0.16,0.16 0.16,0.32 0.16,0.32 0.16,0.16 0.16,0.16 3.04,-0.16 -0.16,0 -0.32,0 L 2.24,11.2 1.92,11.04 1.76,10.88 1.44,10.56 1.12,10.24 l 0,0 -0.16,-0.16 0,-0.32 L 0.8,9.44 0.64,9.28 l 0,-0.32 -0.16,-0.48 0,-0.32 0,-0.48 0,-0.48 -0.16,-0.48 0,-0.48 0,-0.48 0,-0.32 0,-0.64 0.16,-0.48 0,-0.32 0,-0.48 0,-0.48 L 0.64,2.72 0.64,2.4 0.8,2.08 0.8,1.76 0.96,1.44 1.12,1.28 1.28,1.12 1.44,0.8 1.76,0.48 2.08,0.32 2.4,0.16 2.72,0 3.04,0 0,0 z"
                     inkscape:connector-curvature="0"
                     id="path254"
                     style="fill:#000000;fill-opacity:1;fill-rule:evenodd;stroke:#000000;stroke-width:0.5;stroke-linecap:round;stroke-linejoin:round;stroke-miterlimit:10;stroke-opacity:1;stroke-dasharray:none" /></g><g
                   transform="translate(703.52002,782.23999)"
                   id="g256"><path
                     d="m 0,0 -0.16,0 -0.32,0.16 -0.48,0 -0.32,0 -0.32,0.16 -0.32,0.16 -0.32,0.16 -0.32,0.32 -0.16,0 -0.16,0.32 -0.32,0.16 3.04,0 0.16,0 0.48,0 0.32,0.16 0.32,0.16 0.32,0.16 0.16,0.32 0.32,0.32 0,0 0.16,0.32 0.16,0.16 0,0.32 0.16,0.32 0,0.32 0.16,0.32 0,0.32 0,0.48 0.16,0.48 0,0.48 0,0.48 0,0.48 0,0.16 0,0.64 0,0.48 0,0.48 -0.16,0.32 0,0.48 0,0.32 -0.16,0.48 0,0.32 -0.16,0.16 -0.16,0.32 0,0.32 -0.16,0.16 -0.16,0.16 -0.16,0.32 -0.32,0.16 -0.32,0.16 -0.32,0.16 -0.32,0.16 -0.32,0 -3.04,0.16 0.16,0.32 0.32,0.16 0.32,0.16 0.32,0.32 0.32,0 0.32,0.16 0.48,0 0.32,0.16 0.48,0 0,0 0.48,0 0.32,-0.16 0.32,0 0.48,-0.16 0.32,-0.16 0.32,-0.16 0.16,-0.32 0.16,0 L 2.88,12.96 3.04,12.8 3.2,12.48 3.52,12.16 3.68,11.84 3.84,11.36 4,11.04 l 0,-0.16 0,-0.32 0.16,-0.32 0,-0.32 0.16,-0.32 0,-0.32 0,-0.48 0.16,-0.32 0,-0.48 0,-0.48 0,-0.48 0,-0.32 0,-0.32 0,-0.48 -0.16,-0.48 0,-0.32 0,-0.32 0,-0.32 L 4.16,4.16 4.16,3.84 4,3.52 4,3.04 3.84,2.72 3.68,2.4 3.52,2.08 3.36,1.76 3.2,1.76 3.04,1.44 2.72,1.12 2.56,0.96 2.24,0.64 1.92,0.48 1.76,0.48 1.44,0.32 1.12,0.16 0.8,0.16 0.32,0 0,0 z"
                     inkscape:connector-curvature="0"
                     id="path258"
                     style="fill:#000000;fill-opacity:1;fill-rule:evenodd;stroke:#000000;stroke-width:0.5;stroke-linecap:round;stroke-linejoin:round;stroke-miterlimit:10;stroke-opacity:1;stroke-dasharray:none" /></g><g
                   transform="translate(710.71997,782.88)"
                   id="g260"><path
                     d="m 0,0 -0.16,0.32 -0.16,0.32 -0.16,0.32 -0.16,0.48 0,0.32 0,0.16 0.16,0.48 0,0.32 0.16,0.32 0.16,0.32 0.32,0.32 0.16,0 0.32,0.32 0.32,0.16 0.32,0.16 0.32,0 0.48,0 0.16,0 0.32,0 L 2.88,4.16 3.2,4 3.52,3.84 3.84,3.52 4,3.36 2.08,3.36 1.92,3.36 1.6,3.2 1.12,3.04 0.96,2.88 0.8,2.72 0.64,2.4 0.48,2.08 l 0,-0.32 0,-0.16 0,-0.32 L 0.64,0.96 0.96,0.64 0.96,0.48 1.28,0.32 1.6,0.16 2.08,0.16 0,0 z"
                     inkscape:connector-curvature="0"
                     id="path262"
                     style="fill:#000000;fill-opacity:1;fill-rule:evenodd;stroke:#000000;stroke-width:0.5;stroke-linecap:round;stroke-linejoin:round;stroke-miterlimit:10;stroke-opacity:1;stroke-dasharray:none" /></g><g
                   transform="translate(712.79999,781.91998)"
                   id="g264"><path
                     d="m 0,0 -0.32,0 -0.32,0.16 -0.32,0 L -1.28,0.32 -1.6,0.64 -1.92,0.8 -2.08,0.96 0,1.12 l 0,0 0.48,0 0.32,0.16 0.32,0.32 0,0 0.32,0.32 0,0.32 0.16,0.48 0,0 L 1.44,3.2 1.28,3.52 1.12,3.84 0.96,3.84 0.64,4.16 0.32,4.16 0,4.32 1.92,4.32 2.08,4 2.4,3.68 l 0,-0.32 0.16,-0.32 0,-0.32 0,-0.32 0,-0.32 L 2.4,1.76 2.24,1.44 2.08,1.12 1.76,0.8 1.6,0.64 1.28,0.48 0.96,0.32 0.64,0.16 0.32,0.16 0,0 z"
                     inkscape:connector-curvature="0"
                     id="path266"
                     style="fill:#000000;fill-opacity:1;fill-rule:evenodd;stroke:#000000;stroke-width:0.5;stroke-linecap:round;stroke-linejoin:round;stroke-miterlimit:10;stroke-opacity:1;stroke-dasharray:none" /></g><g
                   id="g268"><path
                     d="m 705.28003,819.20001 0,-13.76001 1.91998,0 0,13.76001 -1.91998,0 z"
                     inkscape:connector-curvature="0"
                     id="path270"
                     style="fill:#000000;fill-opacity:1;fill-rule:evenodd;stroke:#000000;stroke-width:0.5;stroke-linecap:round;stroke-linejoin:round;stroke-miterlimit:10;stroke-opacity:1;stroke-dasharray:none" /></g><g
                   transform="translate(700.79999,838.08002)"
                   id="g272"><path
                     d="m 0,0 -1.76,0.16 0,0.32 0,0.48 0.16,0.32 0,0.32 0.16,0.32 0.16,0.48 0.32,0.32 0.16,0.16 0.16,0.32 4.64,0 -0.32,0 -0.32,-0.16 -0.48,0 -0.32,0 L 2.24,2.88 1.92,2.72 1.6,2.56 1.28,2.4 0.96,2.24 0.64,1.92 0.48,1.76 0.32,1.44 0.16,1.12 0.16,0.8 0,0.48 0,0 z"
                     inkscape:connector-curvature="0"
                     id="path274"
                     style="fill:#000000;fill-opacity:1;fill-rule:evenodd;stroke:#000000;stroke-width:0.5;stroke-linecap:round;stroke-linejoin:round;stroke-miterlimit:10;stroke-opacity:1;stroke-dasharray:none" /></g><g
                   transform="translate(708.64001,830.08002)"
                   id="g276"><path
                     d="m 0,0 -4.16,0 0.32,0 0.48,0.16 0.32,0 0.48,0.16 0.32,0 0.32,0.16 0.16,0.16 0,0 0.32,0.32 0.16,0.32 0.16,0.32 0.16,0.32 0.16,0.32 0,0.48 1.76,-0.16 0,0 0,-0.48 L 0.8,1.76 0.8,1.28 0.64,0.96 0.48,0.64 0.32,0.32 l 0,0 L 0,0 z"
                     inkscape:connector-curvature="0"
                     id="path278"
                     style="fill:#000000;fill-opacity:1;fill-rule:evenodd;stroke:#000000;stroke-width:0.5;stroke-linecap:round;stroke-linejoin:round;stroke-miterlimit:10;stroke-opacity:1;stroke-dasharray:none" /></g><g
                   transform="translate(704.47998,828.47998)"
                   id="g280"><path
                     d="m 0,0 -0.32,0 -0.48,0.16 -0.32,0 -0.48,0 -0.32,0.16 -0.32,0.16 -0.32,0.16 -0.48,0.16 -0.32,0.16 -0.32,0.16 -0.16,0.32 -0.32,0.16 -0.16,0.32 -0.16,0.16 -0.16,0.32 -0.16,0.48 0,0.32 -0.16,0.32 0,0.48 0,0.32 0,0.32 0.16,0.32 0.16,0.32 0.16,0.32 0,0.16 0.32,0.16 0.16,0.32 0.32,0.32 0.32,0.16 0.32,0.16 0.16,0.16 0.16,0 0.32,0.16 0.32,0.16 0.32,0 0.48,0.16 0.48,0.16 0.48,0 L 0,7.84 0.48,8 l 0.48,0 0.48,0.16 0.32,0.16 0.16,0 0.32,0 0.32,0.16 0.32,0.32 0.32,0.16 0.16,0.16 0.16,0.16 0.16,0.32 0,0.32 0.16,0.48 0,0 L 3.68,10.88 3.52,11.2 3.36,11.52 3.2,11.84 2.88,12 2.56,12.16 2.24,12.32 1.92,12.48 1.6,12.64 l -0.48,0 -0.32,0 -0.48,0.16 -4.64,0 0.32,0.32 0.32,0.16 0.32,0.16 0.32,0.32 0.32,0.16 0.16,0 0.32,0.16 0.32,0 0.32,0.16 0.32,0 0.48,0.16 0.32,0 0.48,0 0.48,0 0,0 0.48,0 0.32,-0.16 0.48,0 0.32,0 0.32,-0.16 0.32,-0.16 0.32,-0.16 0.16,0 L 3.52,13.6 3.84,13.28 4.16,13.12 4.48,12.8 4.64,12.48 4.96,12.32 5.12,12 5.28,11.68 5.44,11.2 l 0,-0.32 0.16,-0.32 0,-0.48 0,-0.16 L 5.44,9.6 5.44,9.12 5.28,8.8 5.12,8.48 4.96,8.16 l 0,0 L 4.8,7.84 4.48,7.68 4.16,7.36 4,7.2 3.52,7.04 3.2,6.88 3.2,6.72 2.88,6.72 2.56,6.56 2.24,6.56 1.92,6.4 1.6,6.24 1.12,6.24 0.64,6.08 0.16,5.92 -0.32,5.92 -0.8,5.76 -1.28,5.6 -1.6,5.44 -1.92,5.44 -2.24,5.28 -2.4,5.12 -2.72,4.96 -2.88,4.8 -3.04,4.48 -3.2,4.16 l 0,-0.32 0,-0.32 0.16,-0.32 0.16,-0.32 0.16,-0.32 0.32,-0.32 0.16,0 0.32,-0.16 0.32,-0.16 0.32,-0.16 0.32,0 0.48,0 L 0,1.6 4.16,1.6 4,1.28 3.68,1.12 3.36,0.8 3.04,0.64 2.72,0.48 2.56,0.48 2.24,0.32 1.92,0.32 1.44,0.16 1.12,0.16 0.8,0 0.32,0 0,0 z"
                     inkscape:connector-curvature="0"
                     id="path282"
                     style="fill:#000000;fill-opacity:1;fill-rule:evenodd;stroke:#000000;stroke-width:0.5;stroke-linecap:round;stroke-linejoin:round;stroke-miterlimit:10;stroke-opacity:1;stroke-dasharray:none" /></g><g
                   transform="translate(314.23999,726.56)"
                   id="g284"><path
                     d="m 0,0 -2.08,0 -5.28,13.92 1.92,0 1.6,-4.16 5.76,-0.16 -5.28,-1.44 1.6,-4 0,-0.16 0,-0.32 0.16,-0.32 0.16,-0.48 0.16,-0.32 0,-0.32 0.16,-0.48 0,-0.32 L 0,0 z"
                     inkscape:connector-curvature="0"
                     id="path286"
                     style="fill:#000000;fill-opacity:1;fill-rule:evenodd;stroke:#000000;stroke-width:0.5;stroke-linecap:round;stroke-linejoin:round;stroke-miterlimit:10;stroke-opacity:1;stroke-dasharray:none" /></g><g
                   transform="translate(314.23999,726.56)"
                   id="g288"><path
                     d="m 0,0 -1.12,1.44 0.16,0.32 0,0.32 0.16,0.32 0.16,0.32 0.16,0.32 0,0.48 0.16,0.32 0.16,0.48 1.44,3.84 -4.64,0 5.28,1.44 1.6,4.16 2.08,0 L 0,0 z"
                     inkscape:connector-curvature="0"
                     id="path290"
                     style="fill:#000000;fill-opacity:1;fill-rule:evenodd;stroke:#000000;stroke-width:0.5;stroke-linecap:round;stroke-linejoin:round;stroke-miterlimit:10;stroke-opacity:1;stroke-dasharray:none" /></g><g
                   transform="translate(601.12,596.47998)"
                   id="g292"><path
                     d="m 0,0 -1.6,0.16 0.16,0.32 0.32,0.16 0.32,0.32 0.32,0.16 0.32,0.16 0.32,0.16 0.48,0.16 0.32,0.16 0.48,0 0.32,0 0.16,0 0.48,0 L 2.72,1.6 3.2,1.6 3.52,1.44 4,1.28 4.32,1.12 4.64,0.8 4.8,0.64 1.6,0.32 1.12,0.32 0.8,0.32 0.48,0.16 0,0 z"
                     inkscape:connector-curvature="0"
                     id="path294"
                     style="fill:#000000;fill-opacity:1;fill-rule:evenodd;stroke:#000000;stroke-width:0.5;stroke-linecap:round;stroke-linejoin:round;stroke-miterlimit:10;stroke-opacity:1;stroke-dasharray:none" /></g><g
                   transform="translate(598.88,584)"
                   id="g296"><path
                     d="m 0,0 -0.32,0.32 -0.16,0.32 -0.16,0.32 -0.16,0.32 -0.16,0.32 0,0.32 -0.16,0.48 0,0.32 0,0.48 0,0.48 0,14.56 1.76,0 0,-5.6 1.6,-0.16 -0.32,-0.32 -0.16,0 -0.32,-0.32 -0.16,-0.32 -0.16,-0.48 -0.16,-0.32 0,0 -0.16,-0.32 0,-0.32 -0.16,-0.48 0,-0.48 0,-0.48 0,-0.48 0,-4.16 0,0 0,-0.64 0,-0.48 L 0.8,2.56 0.8,2.24 0.8,1.92 0.96,1.76 1.12,1.44 1.28,1.12 1.76,0.8 1.76,0.64 2.08,0.48 2.56,0.32 2.88,0.32 3.36,0.16 0,0 z"
                     inkscape:connector-curvature="0"
                     id="path298"
                     style="fill:#000000;fill-opacity:1;fill-rule:evenodd;stroke:#000000;stroke-width:0.5;stroke-linecap:round;stroke-linejoin:round;stroke-miterlimit:10;stroke-opacity:1;stroke-dasharray:none" /></g><g
                   transform="translate(602.23999,582.71997)"
                   id="g300"><path
                     d="m 0,0 -0.16,0 -0.32,0 -0.48,0.16 -0.32,0 L -1.76,0.32 -2.08,0.48 -2.4,0.64 -2.72,0.8 -3.04,1.12 -3.36,1.28 0,1.44 0.32,1.6 0.8,1.6 1.12,1.76 1.44,1.92 1.76,2.24 1.92,2.4 2.24,2.72 2.4,3.04 l 0.16,0.32 0,0.48 0,0.16 0,0.48 L 2.4,4.8 2.24,5.12 1.92,5.44 1.6,5.76 1.44,5.92 1.12,6.08 0.8,6.24 0.32,6.24 0,6.4 l -0.48,0 -0.64,0 0,1.44 0.32,0 0.16,0 0.48,0 0.32,0 0.48,0 L 0.96,8 1.28,8 1.44,8.16 1.76,8.32 2.08,8.48 2.4,8.8 l 0.32,0.32 0.16,0.32 0.16,0.48 0.16,0.32 0,0.48 0,0.32 0,0.32 0,0.48 -0.16,0.32 -0.16,0.48 -0.16,0.32 -0.16,0.32 -0.32,0.16 -0.16,0.32 -0.48,0.16 -0.32,0.16 -0.32,0 -0.48,0 3.2,0.32 L 4,14.08 4.16,13.92 4.32,13.6 4.48,13.28 4.8,12.96 l 0.16,-0.48 0,-0.32 0.16,-0.32 0,-0.48 0,-0.48 0,0 0,-0.48 0,-0.48 L 4.96,9.6 4.8,9.28 4.64,8.96 4.48,8.48 4.16,8.16 4,8 3.68,7.84 3.36,7.52 3.04,7.36 2.72,7.2 2.24,7.2 1.92,7.04 1.44,7.04 1.6,6.88 2.08,6.88 2.4,6.72 2.72,6.4 3.04,6.24 3.36,5.92 3.68,5.6 3.84,5.28 4,4.96 4.16,4.64 l 0,-0.48 0.16,-0.48 0,0 L 4.16,3.36 4.16,2.88 4,2.56 3.84,2.24 3.68,1.76 3.52,1.44 3.2,1.12 3.04,0.96 2.72,0.8 2.56,0.48 2.08,0.32 1.76,0.16 1.44,0.16 0.96,0 0.48,0 0,0 z"
                     inkscape:connector-curvature="0"
                     id="path302"
                     style="fill:#000000;fill-opacity:1;fill-rule:evenodd;stroke:#000000;stroke-width:0.5;stroke-linecap:round;stroke-linejoin:round;stroke-miterlimit:10;stroke-opacity:1;stroke-dasharray:none" /></g><g
                   id="g304"><path
                     d="m 539.84003,602.08002 0,-2.08002 2.07995,-0.15997 0,2.07995 -2.07995,0.16004 z"
                     inkscape:connector-curvature="0"
                     id="path306"
                     style="fill:#000000;fill-opacity:1;fill-rule:evenodd;stroke:#000000;stroke-width:0.5;stroke-linecap:round;stroke-linejoin:round;stroke-miterlimit:10;stroke-opacity:1;stroke-dasharray:none" /></g></g></g><g
               transform="translate(535.35998,608.47998)"
               id="g308"><path
                 d="m 0,0 -0.16,-0.96 -0.16,-0.48 0,-0.32 -0.16,-0.48 0,-0.16 0,-0.32 -0.16,-0.16 0,-0.16 0,-0.32 -0.16,-0.16 0,-0.16 0,-0.32 0,-0.16 0,-0.16 -0.16,-0.32 0,-0.16 0,-0.16 0,-0.32 -0.16,-0.16 0,-0.16 0,-0.16 0,-0.32 0,-0.16 0,-0.16 -0.16,-0.32 0,-0.16 0,-0.16 0,-0.16 0,-0.32 0,-0.16 0,-0.16 0,-0.16 0,-0.16 -0.16,0 0,-0.16 0,-0.16 0,-0.16 0,-0.16 0,-0.16 0,-0.16 0,-0.16 0,-0.16 0,-0.16 0,-0.16 0,-0.16 0,-0.16 0.16,-0.16 0,-0.16 0,-0.16 0,-0.16 0,-0.16 0,-0.16 0,-0.16 0,-0.16 0.16,-0.16 0,-0.16 0,-0.16 0,-0.16 0.16,-0.16 0,-0.16 0,-0.16 0.16,-0.16 0,-0.16 0,-0.16 0.16,0 0,-0.16 0,-0.16 0.16,0 0,-0.16 0.16,-0.16 0,-0.16 0.16,0 0,-0.16 0.16,-0.16 0,-0.16 0.16,0 0,-0.16 0.16,0 0,-0.16 0.16,0 0,-0.16 0.16,0 0,-0.16 0.16,0 0,-0.16 0.16,0 0,-0.16 0.16,0 0.16,-0.16 0.16,0 0,-0.16 0.16,0 0,-0.16 0.16,0 0.16,0 0,-0.16 0.16,0 0.16,-0.16 0.16,0 0.16,-0.16 0.16,0 0.16,-0.16 0.16,0 0,-0.16 0.16,0 0.16,-0.159999 0.16,0 0.16,-0.16 0.16,0 0.16,-0.16 0.16,0 0.16,0 0.16,-0.160002 0.16,0 0.16,-0.16 0.16,0 0.16,0 0.16,-0.16 0.16,0 L 5.6,-17.6 l 0.16,0 0.16,0 0.32,-0.16 0.32,-0.16 0.32,-0.16 0.48,0"
                 inkscape:connector-curvature="0"
                 id="path310"
                 style="fill:none;stroke:#000000;stroke-width:0.95999998;stroke-linecap:round;stroke-linejoin:round;stroke-miterlimit:10;stroke-opacity:1;stroke-dasharray:none" /></g><g
               transform="translate(308.48001,676)"
               id="g312"><path
                 d="m 0,0 5.76,-0.16 5.76,0 L 14.24,0 16.959999,0.32 19.68,0.8 22.4,1.44 24.959999,2.4 27.52,3.52 l 2.4,1.28 2.4,1.28 4.799999,3.04 4.639999,3.36 L 40.16,1.12"
                 inkscape:connector-curvature="0"
                 id="path314"
                 style="fill:none;stroke:#000000;stroke-width:0.95999998;stroke-linecap:round;stroke-linejoin:round;stroke-miterlimit:10;stroke-opacity:1;stroke-dasharray:none" /></g><g
               id="g316"><path
                 d="M 350.23999,688.47998 336,686.71997"
                 inkscape:connector-curvature="0"
                 id="path318"
                 style="fill:none;stroke:#000000;stroke-width:0.95999998;stroke-linecap:round;stroke-linejoin:round;stroke-miterlimit:10;stroke-opacity:1;stroke-dasharray:none" /></g><g
               transform="translate(578.71997,583.35998)"
               id="g320"><path
                 d="m 0,0 2.72,-1.12 2.72,-1.12 1.44,-0.48 1.44,-0.32 1.44,-0.32 1.6,-0.16 1.6,0 1.6,0 1.6,0.16 1.76,0.32 1.76,0.48 1.92,0.64 0.8,0.32 0.960001,0.48 L 24.16,-0.64 25.120001,-0.16 25.92,0.32 26.879999,0.8 27.68,1.44 28.48,2.08 29.280001,2.72 30.08,3.36 30.879999,4 31.52,4.8 l 0.64,0.8 0.799999,0.8 0.639999,0.96 0.640004,0.8 0.479999,0.96 0.64,0.8 0.479999,0.96 0.64,0.96 0.479999,0.96 0.48,0.96 0.800003,2.08 1.439998,4 0.48,1.92 0.32,1.119999 0.159999,0.960001 0.48,1.92 0.32,1.76 3.2,-6.560001"
                 inkscape:connector-curvature="0"
                 id="path322"
                 style="fill:none;stroke:#000000;stroke-width:0.95999998;stroke-linecap:round;stroke-linejoin:round;stroke-miterlimit:10;stroke-opacity:1;stroke-dasharray:none" /></g><g
               id="g324"><path
                 d="m 620.15997,610.88 -7.67999,-9.59997 m -173.11999,38.56 -8.47999,20 m 8.32001,-20 -20.16,-3.04004"
                 inkscape:connector-curvature="0"
                 id="path326"
                 style="fill:none;stroke:#000000;stroke-width:0.95999998;stroke-linecap:round;stroke-linejoin:round;stroke-miterlimit:10;stroke-opacity:1;stroke-dasharray:none" /></g><g
               transform="translate(136.16,779.03998)"
               id="g328"><path
                 d="m 0,0 -0.96,0.96 -0.8,0.8 -0.64,0.96 -0.32,0.96 -0.16,0.96 0,0.96 0.32,0.96 0.48,0.8 0.8,0.96 0.96,0.96 1.12,0.96 1.44,0.96 1.6,0.8 1.92,0.96 1.92,0.96 2.24,0.8 2.56,0.96 2.56,0.8 2.88,0.960001 L 20.959999,18.24 24.32,19.200001 27.84,20 31.52,20.799999 35.360001,21.6 l 4,0.8 L 43.52,23.200001 48,24 l 4.639999,0.799999 4.8,0.640002 4.960003,0.799999 4.959999,0.639999 5.279998,0.640001 5.440003,0.8 L 83.68,28.959999 89.440002,29.6 l 5.919999,0.64 6.079999,0.479999 6.24,0.640002 6.24,0.479999 6.4,0.64 6.56,0.479999 6.72001,0.48 6.72,0.479999 6.87999,0.480004 7.04,0.319999 7.04,0.48 7.2,0.319999 7.36,0.32 7.36,0.32 7.36,0.32 7.52,0.319999 7.52001,0.32 7.51998,0.16 7.68001,0.16 7.68,0.159999 7.84001,0.16 7.67999,0.16 7.84,0.160004 7.83999,0 7.84,0 7.84,0 7.84002,0 7.67999,0 7.84,0 7.84,-0.160004 7.83999,-0.16 7.68,0 7.68002,-0.319999 7.67999,-0.16 7.68,-0.16 7.52001,-0.32 7.51999,-0.16 L 367.51999,36.32 374.88,36 l 7.35999,-0.32 7.20001,-0.479999 7.04001,-0.32 7.03998,-0.479999 7.04001,-0.32 6.72,-0.480004 6.72,-0.479999 6.56,-0.48 L 437.12,32 l 6.23999,-0.48 6.24002,-0.640001 6.07998,-0.479999 5.92002,-0.64 5.75998,-0.639999 5.6,-0.640001 5.60001,-0.64 5.28,-0.799999 L 488.95999,26.4 493.92001,25.6 498.72,24.959999 503.51999,24.16 507.84,23.360001 l 4.31997,-0.800002 4.16004,-0.799999 3.83996,-0.800001 3.68006,-0.799999 3.51995,-0.799999 3.35999,-0.800002 3.20001,-0.959999 2.88001,-0.800001 2.72003,-0.959999 2.56,-0.8 2.23999,-0.96 2.08001,-0.8 1.91999,-0.96 1.59997,-0.96 1.44,-0.96 1.28003,-0.8 0.95997,-0.96 0.80004,-0.96 0.63996,-0.96 0.32,-0.96 0.16004,-0.64"
                 inkscape:connector-curvature="0"
                 id="path330"
                 style="fill:none;stroke:#000000;stroke-width:0.95999998;stroke-linecap:round;stroke-linejoin:round;stroke-miterlimit:10;stroke-opacity:1;stroke-dasharray:none" /></g><g
               id="g332"><path
                 d="m 691.67999,783.20001 0,-0.16003 -0.32001,-0.95996 -0.64001,-0.96002 -0.63995,-0.96003 -0.96002,-0.95996"
                 inkscape:connector-curvature="0"
                 id="path334"
                 style="fill:none;stroke:#000000;stroke-width:0.95999998;stroke-linecap:round;stroke-linejoin:round;stroke-miterlimit:10;stroke-opacity:1;stroke-dasharray:none" /></g><g
               id="g336"><path
                 d="M 687.84003,778.23999 686.56,777.44 l -1.59998,-0.96002 -1.92004,-0.95996 -1.91998,-0.80005 -0.79999,-0.31995"
                 inkscape:connector-curvature="0"
                 id="path338"
                 style="fill:none;stroke:#000000;stroke-width:0.95999998;stroke-linecap:round;stroke-linejoin:round;stroke-miterlimit:10;stroke-opacity:1;stroke-dasharray:none" /></g><g
               id="g340"><path
                 d="m 677.76001,773.44 -1.44,-0.64001 -2.56,-0.79999 -2.88001,-0.79999 -3.20001,-0.96002 -2.23999,-0.64001"
                 inkscape:connector-curvature="0"
                 id="path342"
                 style="fill:none;stroke:#000000;stroke-width:0.95999998;stroke-linecap:round;stroke-linejoin:round;stroke-miterlimit:10;stroke-opacity:1;stroke-dasharray:none" /></g><g
               id="g344"><path
                 d="m 661.76001,768.79999 -0.79999,-0.15998 -3.67999,-0.96002 -3.84003,-0.79999 -4,-0.79998 -4.32,-0.79999 -0.15998,0"
                 inkscape:connector-curvature="0"
                 id="path346"
                 style="fill:none;stroke:#000000;stroke-width:0.95999998;stroke-linecap:round;stroke-linejoin:round;stroke-miterlimit:10;stroke-opacity:1;stroke-dasharray:none" /></g><g
               id="g348"><path
                 d="m 640.15997,764.47998 -4,-0.63995 -4.79999,-0.80005 -4.95996,-0.63996 -5.11999,-0.80004 -2.08002,-0.31995"
                 inkscape:connector-curvature="0"
                 id="path350"
                 style="fill:none;stroke:#000000;stroke-width:0.95999998;stroke-linecap:round;stroke-linejoin:round;stroke-miterlimit:10;stroke-opacity:1;stroke-dasharray:none" /></g><g
               id="g352"><path
                 d="m 613.44,760.64001 -2.88,-0.32 -5.59998,-0.64002 -5.76001,-0.64001 -5.76001,-0.63996 -4.64001,-0.48004"
                 inkscape:connector-curvature="0"
                 id="path354"
                 style="fill:none;stroke:#000000;stroke-width:0.95999998;stroke-linecap:round;stroke-linejoin:round;stroke-miterlimit:10;stroke-opacity:1;stroke-dasharray:none" /></g><g
               id="g356"><path
                 d="M 582.23999,757.28003 581.12,757.12 l -6.24,-0.47999 -6.40002,-0.48004 -6.56,-0.63995 -6.71997,-0.48004 -0.64001,0"
                 inkscape:connector-curvature="0"
                 id="path358"
                 style="fill:none;stroke:#000000;stroke-width:0.95999998;stroke-linecap:round;stroke-linejoin:round;stroke-miterlimit:10;stroke-opacity:1;stroke-dasharray:none" /></g><g
               id="g360"><path
                 d="m 547.20001,754.56 -5.76001,-0.32001 -6.88,-0.47998 -7.20002,-0.47998 -7.03997,-0.32001 -3.35999,-0.16003"
                 inkscape:connector-curvature="0"
                 id="path362"
                 style="fill:none;stroke:#000000;stroke-width:0.95999998;stroke-linecap:round;stroke-linejoin:round;stroke-miterlimit:10;stroke-opacity:1;stroke-dasharray:none" /></g><g
               id="g364"><path
                 d="M 509.28,752.47998 505.60001,752.32001 498.23999,752 490.72,751.67999 483.20001,751.52002 477.12,751.35998"
                 inkscape:connector-curvature="0"
                 id="path366"
                 style="fill:none;stroke:#000000;stroke-width:0.95999998;stroke-linecap:round;stroke-linejoin:round;stroke-miterlimit:10;stroke-opacity:1;stroke-dasharray:none" /></g><g
               id="g368"><path
                 d="m 468.95999,751.03998 -0.95999,0 -7.84,-0.15998 -7.67999,-0.16003 -7.68002,-0.15997 -7.84,0 -1.11999,0"
                 inkscape:connector-curvature="0"
                 id="path370"
                 style="fill:none;stroke:#000000;stroke-width:0.95999998;stroke-linecap:round;stroke-linejoin:round;stroke-miterlimit:10;stroke-opacity:1;stroke-dasharray:none" /></g><g
               id="g372"><path
                 d="m 427.51999,750.40002 -6.23999,0 -7.84,0 -7.83999,0 -7.84,0 -3.68002,0"
                 inkscape:connector-curvature="0"
                 id="path374"
                 style="fill:none;stroke:#000000;stroke-width:0.95999998;stroke-linecap:round;stroke-linejoin:round;stroke-miterlimit:10;stroke-opacity:1;stroke-dasharray:none" /></g><g
               id="g376"><path
                 d="m 385.60001,750.56 -3.36002,0 -7.84,0.15997 -7.67999,0.16003 -7.67999,0.15998 -6.4,0.16003"
                 inkscape:connector-curvature="0"
                 id="path378"
                 style="fill:none;stroke:#000000;stroke-width:0.95999998;stroke-linecap:round;stroke-linejoin:round;stroke-miterlimit:10;stroke-opacity:1;stroke-dasharray:none" /></g><g
               id="g380"><path
                 d="m 344.48001,751.35998 -0.80002,0 -7.51999,0.32001 -7.51999,0.32001 -7.36001,0.15997 -7.51999,0.32001 -1.28,0.16003"
                 inkscape:connector-curvature="0"
                 id="path382"
                 style="fill:none;stroke:#000000;stroke-width:0.95999998;stroke-linecap:round;stroke-linejoin:round;stroke-miterlimit:10;stroke-opacity:1;stroke-dasharray:none" /></g><g
               id="g384"><path
                 d="m 304.79999,752.96002 -5.44,0.32001 -7.19999,0.31995 -6.88,0.48004 -7.04001,0.47998 -3.51999,0.15997"
                 inkscape:connector-curvature="0"
                 id="path386"
                 style="fill:none;stroke:#000000;stroke-width:0.95999998;stroke-linecap:round;stroke-linejoin:round;stroke-miterlimit:10;stroke-opacity:1;stroke-dasharray:none" /></g><g
               id="g388"><path
                 d="m 267.51999,755.20001 -2.72,0.32001 -6.56,0.47998 -6.56,0.47998 -6.23999,0.48004 -5.44,0.63996"
                 inkscape:connector-curvature="0"
                 id="path390"
                 style="fill:none;stroke:#000000;stroke-width:0.95999998;stroke-linecap:round;stroke-linejoin:round;stroke-miterlimit:10;stroke-opacity:1;stroke-dasharray:none" /></g><g
               id="g392"><path
                 d="m 233.44,758.23999 -0.32001,0 -5.91999,0.64001 -5.76,0.64002 -5.76001,0.63995 -5.43999,0.64002 -1.12001,0.16003"
                 inkscape:connector-curvature="0"
                 id="path394"
                 style="fill:none;stroke:#000000;stroke-width:0.95999998;stroke-linecap:round;stroke-linejoin:round;stroke-miterlimit:10;stroke-opacity:1;stroke-dasharray:none" /></g><g
               id="g396"><path
                 d="m 203.36,761.59998 -3.52,0.48004 -5.12,0.79998 -4.8,0.79999 -4.64,0.64002 -2.56,0.47998"
                 inkscape:connector-curvature="0"
                 id="path398"
                 style="fill:none;stroke:#000000;stroke-width:0.95999998;stroke-linecap:round;stroke-linejoin:round;stroke-miterlimit:10;stroke-opacity:1;stroke-dasharray:none" /></g><g
               id="g400"><path
                 d="m 178.08,765.59998 -1.44,0.32 -4.16,0.79999 -3.84,0.80005 -3.84,0.79999 -3.19999,0.79999"
                 inkscape:connector-curvature="0"
                 id="path402"
                 style="fill:none;stroke:#000000;stroke-width:0.95999998;stroke-linecap:round;stroke-linejoin:round;stroke-miterlimit:10;stroke-opacity:1;stroke-dasharray:none" /></g><g
               id="g404"><path
                 d="m 158.08,770.08002 -3.2,0.79998 -2.88,0.96003 -2.72,0.79998 -2.56,0.95997 -0.64,0.16003"
                 inkscape:connector-curvature="0"
                 id="path406"
                 style="fill:none;stroke:#000000;stroke-width:0.95999998;stroke-linecap:round;stroke-linejoin:round;stroke-miterlimit:10;stroke-opacity:1;stroke-dasharray:none" /></g><g
               id="g408"><path
                 d="m 143.67999,774.71997 -1.28,0.64001 -1.91999,0.79999 -1.6,0.96003 -1.44,0.96002 -1.28,0.95996"
                 inkscape:connector-curvature="0"
                 id="path410"
                 style="fill:none;stroke:#000000;stroke-width:0.95999998;stroke-linecap:round;stroke-linejoin:round;stroke-miterlimit:10;stroke-opacity:1;stroke-dasharray:none" /></g><g
               id="g412"><path
                 d="m 412.48001,1060.96 1.12,-1.12 1.11999,-1.2799 1.28,-1.6001 1.12,-1.76 0.64001,-0.96"
                 inkscape:connector-curvature="0"
                 id="path414"
                 style="fill:none;stroke:#000000;stroke-width:0.95999998;stroke-linecap:round;stroke-linejoin:round;stroke-miterlimit:10;stroke-opacity:1;stroke-dasharray:none" /></g><g
               id="g416"><path
                 d="m 418.88,1052 0.47999,-0.96 1.28002,-2.56 1.12,-2.56 1.11999,-3.04 0.63999,-1.92"
                 inkscape:connector-curvature="0"
                 id="path418"
                 style="fill:none;stroke:#000000;stroke-width:0.95999998;stroke-linecap:round;stroke-linejoin:round;stroke-miterlimit:10;stroke-opacity:1;stroke-dasharray:none" /></g><g
               id="g420"><path
                 d="m 424.64001,1037.6 0.47999,-1.12 0.95999,-3.52 1.12002,-3.84 1.12,-4 0.79999,-3.36"
                 inkscape:connector-curvature="0"
                 id="path422"
                 style="fill:none;stroke:#000000;stroke-width:0.95999998;stroke-linecap:round;stroke-linejoin:round;stroke-miterlimit:10;stroke-opacity:1;stroke-dasharray:none" /></g><g
               id="g424"><path
                 d="m 430.23999,1017.28 0.16,-0.64 1.12,-4.64 0.96002,-4.64 0.95999,-4.96 0.95999,-4.96"
                 inkscape:connector-curvature="0"
                 id="path426"
                 style="fill:none;stroke:#000000;stroke-width:0.95999998;stroke-linecap:round;stroke-linejoin:round;stroke-miterlimit:10;stroke-opacity:1;stroke-dasharray:none" /></g><g
               id="g428"><path
                 d="m 435.35999,991.84003 0.96002,-5.44001 0.95999,-5.76001 0.95999,-5.76001 0.80002,-6.08001 0.16,-0.64002"
                 inkscape:connector-curvature="0"
                 id="path430"
                 style="fill:none;stroke:#000000;stroke-width:0.95999998;stroke-linecap:round;stroke-linejoin:round;stroke-miterlimit:10;stroke-opacity:1;stroke-dasharray:none" /></g><g
               id="g432"><path
                 d="m 440,961.76001 0.79999,-5.28003 0.80002,-6.56 0.79998,-6.56 0.80002,-6.71997 0.15998,-1.92004"
                 inkscape:connector-curvature="0"
                 id="path434"
                 style="fill:none;stroke:#000000;stroke-width:0.95999998;stroke-linecap:round;stroke-linejoin:round;stroke-miterlimit:10;stroke-opacity:1;stroke-dasharray:none" /></g><g
               id="g436"><path
                 d="m 444.16,927.67999 0.48001,-4.96002 0.63999,-7.03998 0.64001,-7.20001 0.63999,-7.35998 0.16,-3.20002"
                 inkscape:connector-curvature="0"
                 id="path438"
                 style="fill:none;stroke:#000000;stroke-width:0.95999998;stroke-linecap:round;stroke-linejoin:round;stroke-miterlimit:10;stroke-opacity:1;stroke-dasharray:none" /></g><g
               id="g440"><path
                 d="m 447.35999,890.23999 0.32,-4 0.64002,-7.52002 0.47998,-7.67999 0.48001,-7.83997 0.16,-4.64001"
                 inkscape:connector-curvature="0"
                 id="path442"
                 style="fill:none;stroke:#000000;stroke-width:0.95999998;stroke-linecap:round;stroke-linejoin:round;stroke-miterlimit:10;stroke-opacity:1;stroke-dasharray:none" /></g><g
               id="g444"><path
                 d="m 449.92001,850.56 0.15998,-3.03998 0.32,-8 0.48001,-7.84003 0.32001,-8 0.15998,-6.08001"
                 inkscape:connector-curvature="0"
                 id="path446"
                 style="fill:none;stroke:#000000;stroke-width:0.95999998;stroke-linecap:round;stroke-linejoin:round;stroke-miterlimit:10;stroke-opacity:1;stroke-dasharray:none" /></g><g
               id="g448"><path
                 d="m 451.67999,809.28003 0,-1.76001 0.16001,-8.16004 0.16,-8.15997 0.16,-8 0.16001,-7.35998"
                 inkscape:connector-curvature="0"
                 id="path450"
                 style="fill:none;stroke:#000000;stroke-width:0.95999998;stroke-linecap:round;stroke-linejoin:round;stroke-miterlimit:10;stroke-opacity:1;stroke-dasharray:none" /></g><g
               id="g452"><path
                 d="m 452.48001,767.35998 0,-0.47998 0,-8 0,-8.16003 0,-8 0,-8 0,-0.47998"
                 inkscape:connector-curvature="0"
                 id="path454"
                 style="fill:none;stroke:#000000;stroke-width:0.95999998;stroke-linecap:round;stroke-linejoin:round;stroke-miterlimit:10;stroke-opacity:1;stroke-dasharray:none" /></g><g
               id="g456"><path
                 d="M 452.32001,725.91998 452.16,718.71997 452,710.88 l -0.16,-7.84002 -0.16001,-7.68 0,-1.59997"
                 inkscape:connector-curvature="0"
                 id="path458"
                 style="fill:none;stroke:#000000;stroke-width:0.95999998;stroke-linecap:round;stroke-linejoin:round;stroke-miterlimit:10;stroke-opacity:1;stroke-dasharray:none" /></g><g
               id="g460"><path
                 d="m 451.35999,685.76001 -0.15998,-5.60004 -0.32001,-7.51996 -0.48001,-7.35998 -0.32,-7.36005 -0.15998,-2.71997"
                 inkscape:connector-curvature="0"
                 id="path462"
                 style="fill:none;stroke:#000000;stroke-width:0.95999998;stroke-linecap:round;stroke-linejoin:round;stroke-miterlimit:10;stroke-opacity:1;stroke-dasharray:none" /></g><g
               id="g464"><path
                 d="m 449.44,647.84003 -0.16,-4.16004 -0.48001,-7.03998 -0.47998,-6.72003 -0.64002,-6.71997 -0.32,-3.52002"
                 inkscape:connector-curvature="0"
                 id="path466"
                 style="fill:none;stroke:#000000;stroke-width:0.95999998;stroke-linecap:round;stroke-linejoin:round;stroke-miterlimit:10;stroke-opacity:1;stroke-dasharray:none" /></g><g
               id="g468"><path
                 d="m 446.72,612.96002 -0.16,-2.88 -0.63999,-6.23999 -0.64001,-6.08002 -0.63999,-5.91998 -0.48001,-4"
                 inkscape:connector-curvature="0"
                 id="path470"
                 style="fill:none;stroke:#000000;stroke-width:0.95999998;stroke-linecap:round;stroke-linejoin:round;stroke-miterlimit:10;stroke-opacity:1;stroke-dasharray:none" /></g><g
               id="g472"><path
                 d="m 443.35999,581.91998 -0.15998,-1.59997 -0.80002,-5.44001 -0.79998,-5.28002 -0.80002,-5.12 L 440,560.32001"
                 inkscape:connector-curvature="0"
                 id="path474"
                 style="fill:none;stroke:#000000;stroke-width:0.95999998;stroke-linecap:round;stroke-linejoin:round;stroke-miterlimit:10;stroke-opacity:1;stroke-dasharray:none" /></g><g
               id="g476"><path
                 d="m 439.20001,555.35998 -0.16,-0.64001 -0.80002,-4.47998 -0.95999,-4.32001 -0.95999,-4.15997 -0.96002,-4"
                 inkscape:connector-curvature="0"
                 id="path478"
                 style="fill:none;stroke:#000000;stroke-width:0.95999998;stroke-linecap:round;stroke-linejoin:round;stroke-miterlimit:10;stroke-opacity:1;stroke-dasharray:none" /></g><g
               id="g480"><path
                 d="M 434.39999,533.91998 433.44,530.56 l -0.95999,-3.35999 -0.96002,-3.04004 -1.12,-2.87994 -0.16,-0.48004"
                 inkscape:connector-curvature="0"
                 id="path482"
                 style="fill:none;stroke:#000000;stroke-width:0.95999998;stroke-linecap:round;stroke-linejoin:round;stroke-miterlimit:10;stroke-opacity:1;stroke-dasharray:none" /></g><g
               id="g484"><path
                 d="m 429.12,518.23999 -0.79999,-2.08002 -1.12,-2.07995 L 426.07999,512 425.12,510.23999 l -0.47999,-0.47998"
                 inkscape:connector-curvature="0"
                 id="path486"
                 style="fill:none;stroke:#000000;stroke-width:0.95999998;stroke-linecap:round;stroke-linejoin:round;stroke-miterlimit:10;stroke-opacity:1;stroke-dasharray:none" /></g><g
               id="g488"><path
                 d="m 423.51999,508.32001 -0.63999,-0.80002 -1.11999,-1.12 -1.12,-0.79998 -1.28002,-0.48001 -0.47999,-0.16001"
                 inkscape:connector-curvature="0"
                 id="path490"
                 style="fill:none;stroke:#000000;stroke-width:0.95999998;stroke-linecap:round;stroke-linejoin:round;stroke-miterlimit:10;stroke-opacity:1;stroke-dasharray:none" /></g><g
               transform="translate(417.76001,504.64001)"
               id="g492"><path
                 d="m 0,0 -0.64,0 -1.12,0.16 -1.28,0.32 -1.12,0.64 -1.12,0.8 -1.12,1.12 -1.28,1.28 -1.12,1.6 -1.12,1.76 -1.12,2.08 -1.28,2.24 -1.12,2.4 -1.12,2.720001 L -15.68,20 -16.799999,23.040001 -17.92,26.4 -19.040001,30.08 -20,33.759998 l -1.120001,4 -1.119999,4.16 -0.960001,4.320004 L -24.32,50.880001 -25.280001,55.68 -26.24,60.639999 -27.360001,65.760002 -28.32,71.040001 -29.120001,76.639999 -30.08,82.239998 -31.040001,88 -31.84,94.080002 -32.799999,100.16 l -0.799999,6.4 -0.800004,6.4 -0.799999,6.56 -0.799999,6.72 -0.639999,6.87999 -0.8,7.04001 -0.640003,7.04 -0.639999,7.19999 -0.64,7.36 -0.639999,7.36 -0.48,7.52001 -0.639999,7.68001 -0.479999,7.67999 -0.480004,7.67999 -0.479999,7.84001 -0.32,7.84 -0.48,8 -0.319999,8 -0.32,8 -0.32,8 -0.16,8.16 -0.159999,7.99999 -0.32,8.16 -0.16,8.16001 0,8 -0.16,8.16 0,8.16 0,8 0,8 0,8.16001 0.16,7.83999 0,8 0.16,7.84 0.32,7.84 0.159999,7.67999 0.16,7.68002 0.32,7.51999 0.32,7.51999 0.319999,7.52002 0.48,7.19998 0.32,7.20001 0.479999,7.04001 0.480004,7.03998 0.479999,6.88001 0.639999,6.72 0.48,6.55999 0.639999,6.4 0.64,6.24002 0.639999,6.07999 0.640003,6.08001 0.8,5.75998 L -36,482.56 l 0.799999,5.6 0.799999,5.28 0.800004,5.12 0.799999,4.79999 0.959999,4.80001 0.799999,4.48001 0.960001,4.47999 0.959999,4 0.800001,4 0.959999,3.67999 1.120001,3.52002 0.959999,3.35998 0.960001,3.03998 1.119999,2.88001 0.960001,2.72003 1.119999,2.39996 1.120001,2.24005 0.959999,1.91998 1.120001,1.76001 1.120001,1.44001 1.119999,1.27996 1.12,1.12 1.12,0.80005 1.12,0.47998 1.28,0.47998 1.12,0 1.12,-0.15997 1.12,-0.32001 1.28,-0.64001 1.12,-0.79999"
                 inkscape:connector-curvature="0"
                 id="path494"
                 style="fill:none;stroke:#000000;stroke-width:0.95999998;stroke-linecap:round;stroke-linejoin:round;stroke-miterlimit:10;stroke-opacity:1;stroke-dasharray:none" /></g><g
               id="g496"><path
                 d="m 639.67999,623.20001 3.03998,3.35999 2.72003,3.35998 2.40003,3.68 0.79998,1.60003"
                 inkscape:connector-curvature="0"
                 id="path498"
                 style="fill:none;stroke:#000000;stroke-width:0.95999998;stroke-linecap:round;stroke-linejoin:round;stroke-miterlimit:10;stroke-opacity:1;stroke-dasharray:none" /></g><g
               id="g500"><path
                 d="m 650.08002,638.23999 1.27996,3.35999 1.28003,4.32 0.95997,4.48004 0.16003,1.59998"
                 inkscape:connector-curvature="0"
                 id="path502"
                 style="fill:none;stroke:#000000;stroke-width:0.95999998;stroke-linecap:round;stroke-linejoin:round;stroke-miterlimit:10;stroke-opacity:1;stroke-dasharray:none" /></g><g
               id="g504"><path
                 d="m 654.23999,655.67999 0.16003,4.32001 -0.16003,5.12 -0.47998,5.28002 -0.16003,1.27997"
                 inkscape:connector-curvature="0"
                 id="path506"
                 style="fill:none;stroke:#000000;stroke-width:0.95999998;stroke-linecap:round;stroke-linejoin:round;stroke-miterlimit:10;stroke-opacity:1;stroke-dasharray:none" /></g><g
               id="g508"><path
                 d="m 652.96002,676 -1.11999,5.44 -1.60004,5.76001 -1.91998,5.76001 L 648,693.91998"
                 inkscape:connector-curvature="0"
                 id="path510"
                 style="fill:none;stroke:#000000;stroke-width:0.95999998;stroke-linecap:round;stroke-linejoin:round;stroke-miterlimit:10;stroke-opacity:1;stroke-dasharray:none" /></g><g
               id="g512"><path
                 d="m 646.23999,698.71997 -0.15997,0.32001 -2.56,6.08002 -2.88001,6.23998 -3.20001,6.40003 -0.32,0.47998"
                 inkscape:connector-curvature="0"
                 id="path514"
                 style="fill:none;stroke:#000000;stroke-width:0.95999998;stroke-linecap:round;stroke-linejoin:round;stroke-miterlimit:10;stroke-opacity:1;stroke-dasharray:none" /></g><g
               id="g516"><path
                 d="m 634.40002,723.35998 -0.64001,0.79999 -3.84003,6.56 -4.15997,6.72003 -4.47998,6.56"
                 inkscape:connector-curvature="0"
                 id="path518"
                 style="fill:none;stroke:#000000;stroke-width:0.95999998;stroke-linecap:round;stroke-linejoin:round;stroke-miterlimit:10;stroke-opacity:1;stroke-dasharray:none" /></g><g
               id="g520"><path
                 d="m 617.44,749.28003 -1.11999,1.59997 -5.12,6.71998 -5.44,6.88 -5.12,6.23999"
                 inkscape:connector-curvature="0"
                 id="path522"
                 style="fill:none;stroke:#000000;stroke-width:0.95999998;stroke-linecap:round;stroke-linejoin:round;stroke-miterlimit:10;stroke-opacity:1;stroke-dasharray:none" /></g><g
               id="g524"><path
                 d="m 595.84003,776 -1.76001,2.23999 -6.23999,6.88001 -6.56,6.88 -5.60004,5.59998"
                 inkscape:connector-curvature="0"
                 id="path526"
                 style="fill:none;stroke:#000000;stroke-width:0.95999998;stroke-linecap:round;stroke-linejoin:round;stroke-miterlimit:10;stroke-opacity:1;stroke-dasharray:none" /></g><g
               id="g528"><path
                 d="m 570.23999,802.88 -2.71997,2.71998 -7.20001,6.88 -7.52002,6.72003 -5.59998,4.95996"
                 inkscape:connector-curvature="0"
                 id="path530"
                 style="fill:none;stroke:#000000;stroke-width:0.95999998;stroke-linecap:round;stroke-linejoin:round;stroke-miterlimit:10;stroke-opacity:1;stroke-dasharray:none" /></g><g
               id="g532"><path
                 d="m 541.12,829.44 -3.83997,3.20001 -8,6.56 -8.16003,6.56 -5.44001,4.15997"
                 inkscape:connector-curvature="0"
                 id="path534"
                 style="fill:none;stroke:#000000;stroke-width:0.95999998;stroke-linecap:round;stroke-linejoin:round;stroke-miterlimit:10;stroke-opacity:1;stroke-dasharray:none" /></g><g
               id="g536"><path
                 d="m 508.95999,854.88 -4.79999,3.52002 -8.64001,6.23999 -8.79999,6.07996 -4.95999,3.36005"
                 inkscape:connector-curvature="0"
                 id="path538"
                 style="fill:none;stroke:#000000;stroke-width:0.95999998;stroke-linecap:round;stroke-linejoin:round;stroke-miterlimit:10;stroke-opacity:1;stroke-dasharray:none" /></g><g
               id="g540"><path
                 d="m 474.72,878.71997 -5.76001,3.84003 -9.11999,5.59997 -9.12,5.60004 -4.32001,2.56"
                 inkscape:connector-curvature="0"
                 id="path542"
                 style="fill:none;stroke:#000000;stroke-width:0.95999998;stroke-linecap:round;stroke-linejoin:round;stroke-miterlimit:10;stroke-opacity:1;stroke-dasharray:none" /></g><g
               id="g544"><path
                 d="m 439.20001,900.47998 -6.88,3.84003 -9.28,4.96002 -9.28,4.95996 L 410.07999,916"
                 inkscape:connector-curvature="0"
                 id="path546"
                 style="fill:none;stroke:#000000;stroke-width:0.95999998;stroke-linecap:round;stroke-linejoin:round;stroke-miterlimit:10;stroke-opacity:1;stroke-dasharray:none" /></g><g
               id="g548"><path
                 d="m 402.88,919.67999 -7.52001,3.52002 -9.28,4.32001 -9.12,4 -2.88,1.27997"
                 inkscape:connector-curvature="0"
                 id="path550"
                 style="fill:none;stroke:#000000;stroke-width:0.95999998;stroke-linecap:round;stroke-linejoin:round;stroke-miterlimit:10;stroke-opacity:1;stroke-dasharray:none" /></g><g
               id="g552"><path
                 d="m 366.88,935.67999 -8.16,3.20001 -9.11999,3.35999 -8.80002,3.20001 -2.07999,0.64002"
                 inkscape:connector-curvature="0"
                 id="path554"
                 style="fill:none;stroke:#000000;stroke-width:0.95999998;stroke-linecap:round;stroke-linejoin:round;stroke-miterlimit:10;stroke-opacity:1;stroke-dasharray:none" /></g><g
               id="g556"><path
                 d="m 331.84,948.32001 -8.48001,2.71997 -8.63999,2.40002 -8.32001,2.08002 -1.27999,0.32001"
                 inkscape:connector-curvature="0"
                 id="path558"
                 style="fill:none;stroke:#000000;stroke-width:0.95999998;stroke-linecap:round;stroke-linejoin:round;stroke-miterlimit:10;stroke-opacity:1;stroke-dasharray:none" /></g><g
               id="g560"><path
                 d="m 298.72,957.28003 -0.64001,0.15997 -8.15998,1.59998 -7.84002,1.44 -7.68,1.12 -0.47998,0"
                 inkscape:connector-curvature="0"
                 id="path562"
                 style="fill:none;stroke:#000000;stroke-width:0.95999998;stroke-linecap:round;stroke-linejoin:round;stroke-miterlimit:10;stroke-opacity:1;stroke-dasharray:none" /></g><g
               id="g564"><path
                 d="m 268,962.40002 -1.12,0.15998 -7.36001,0.47998 -7.03999,0.48004 -6.72001,0"
                 inkscape:connector-curvature="0"
                 id="path566"
                 style="fill:none;stroke:#000000;stroke-width:0.95999998;stroke-linecap:round;stroke-linejoin:round;stroke-miterlimit:10;stroke-opacity:1;stroke-dasharray:none" /></g><g
               id="g568"><path
                 d="m 240.64,963.35998 -1.60001,0 L 232.8,962.88 l -6.08,-0.64001 -5.28,-0.95996"
                 inkscape:connector-curvature="0"
                 id="path570"
                 style="fill:none;stroke:#000000;stroke-width:0.95999998;stroke-linecap:round;stroke-linejoin:round;stroke-miterlimit:10;stroke-opacity:1;stroke-dasharray:none" /></g><g
               id="g572"><path
                 d="M 217.11999,960.32001 215.36,960 l -5.28,-1.44 -4.96001,-1.76001 -3.67999,-1.59998"
                 inkscape:connector-curvature="0"
                 id="path574"
                 style="fill:none;stroke:#000000;stroke-width:0.95999998;stroke-linecap:round;stroke-linejoin:round;stroke-miterlimit:10;stroke-opacity:1;stroke-dasharray:none" /></g><g
               transform="translate(198.08,953.44)"
               id="g576"><path
                 d="m 0,0 -1.92,-0.96 -4,-2.4 -3.68,-2.88 -3.36,-2.88 -2.88,-3.2 -2.719999,-3.52 -2.4,-3.68 -1.92,-3.840001 L -24.48,-27.52 l -1.28,-4.32 -0.959999,-4.48 -0.640002,-4.639999 -0.159999,-4.959999 0,-5.120003 0.479999,-5.279999 0.960001,-5.439998 1.120001,-5.600003 1.599998,-5.599998 1.760001,-5.919998 2.239999,-6.080002 2.560002,-6.080002 3.039999,-6.239998 3.2,-6.400001 3.52,-6.4 4,-6.56 4.16,-6.56 4.64,-6.72 4.8,-6.72 5.12,-6.88 5.440001,-6.72 5.759998,-6.87999 5.92,-6.88001 6.240002,-6.88 6.559997,-6.87999 6.720002,-6.88001 7.040001,-6.88 7.199997,-6.87999 7.520004,-6.72 7.68,-6.72001 7.839996,-6.72 8,-6.55999 8.160002,-6.56 8.32,-6.40001 8.64,-6.24001 8.64,-6.23999 8.64,-6.08001 8.96001,-5.91999 8.95999,-5.92001 9.11999,-5.59998 9.12001,-5.6 9.12,-5.28 9.28,-5.28 9.11999,-4.96002 9.28002,-4.79999 9.27999,-4.64001 9.28,-4.47999 9.28,-4.32 9.12,-4 9.12001,-3.84 9.11999,-3.51999 8.96,-3.36001 8.95999,-3.19999 8.80001,-2.88 8.63999,-2.56 8.64001,-2.40002 8.32001,-2.23999 8.31998,-1.91999 8,-1.6 8,-1.44 7.68002,-1.12 7.51999,-0.80002 7.35999,-0.63998 7.04,-0.32001 6.72001,-0.16 6.72,0.16 6.23999,0.48001 6.08001,0.79999 5.76001,0.95999 5.59998,1.12 5.28,1.6 4.96002,1.76001 4.47998,1.91999 4.32001,2.24002 4,2.55999 3.67999,2.72 3.36002,2.88001"
                 inkscape:connector-curvature="0"
                 id="path578"
                 style="fill:none;stroke:#000000;stroke-width:0.95999998;stroke-linecap:round;stroke-linejoin:round;stroke-miterlimit:10;stroke-opacity:1;stroke-dasharray:none" /></g><g
               transform="translate(413.60001,506.56)"
               id="g580"><path
                 d="m 0,0 -0.32,-0.8 -0.8,-0.32 -0.8,0.32 -0.32,0.8 0.32,0.8 0.8,0.32 L -0.32,0.8 0,0 z"
                 inkscape:connector-curvature="0"
                 id="path582"
                 style="fill:none;stroke:#000000;stroke-width:1.91999996;stroke-linecap:round;stroke-linejoin:round;stroke-miterlimit:10;stroke-opacity:1;stroke-dasharray:none" /></g><g
               transform="translate(691.67999,783.84003)"
               id="g584"><path
                 d="M 0,0 -0.32,-13.28 -1.28,-26.559999 -2.88,-39.84 l -2.24,-13.119999 -2.72,-12.959999 -3.52,-12.800003 -4,-12.64 L -20,-103.84 -25.280001,-116 l -5.76,-12 -6.399998,-11.67999 -6.880001,-11.36 -7.52,-10.88001 -7.84,-10.72 -8.480004,-10.24 -8.959999,-9.76 -9.439995,-9.44 -9.760002,-8.95999 -10.24,-8.48001 -10.72,-8 -11.04001,-7.36 -11.35998,-6.87999 -11.52001,-6.40001 -12,-5.76 -12.16,-5.28001 -12.48,-4.63999 -12.64,-4 -12.96,-3.51999 -12.95999,-2.88 -13.12001,-2.08002 -13.12,-1.6 -13.28001,-0.95999 -13.28,-0.32001 -13.28,0.32001 -13.28,0.95999 -13.11999,1.6 -13.12,2.08002 -13.12,2.88 -12.80001,3.51999 -12.63999,4 -12.48001,4.63999 -12.16,5.28001 -12,5.76 -11.67999,6.40001 -11.35999,6.87999 -10.88001,7.36 -10.72,8 -10.23999,8.48001 -9.76001,8.95999 -9.44,9.44 -8.95999,9.76 -8.48001,10.24 -8,10.72 -7.36002,10.88001 -6.88,11.36 -6.39996,11.67999 -5.76002,12 -5.28002,12.16 -4.63996,12.479999 -4,12.64 -3.52002,12.800003 -2.88,12.959999 -2.08002,13.119999 -1.59998,13.280001 -0.96002,13.279999 -0.32,13.28 0.32,13.28 0.96002,13.279999 1.59998,13.120001 2.08002,13.119999 2.88,12.960003 3.52002,12.799996 4,12.639999 4.63996,12.480003 5.28002,12.16 5.76002,12 6.39996,11.68 6.88,11.36 7.36002,11.04 8,10.56 8.48001,10.24 8.95999,9.92 9.44,9.28 9.76001,8.96 10.23999,8.48 10.72,8 10.88001,7.36 11.35999,7.03999 11.67999,6.24001 12,5.92 12.16,5.12001 12.48001,4.63998 12.63999,4.16001 12.80001,3.36001 13.12,2.87998 13.12,2.24002 13.11999,1.6 13.28,0.79999 13.28,0.32001 13.28,-0.32001 13.28001,-0.79999 13.12,-1.6 13.12001,-2.24002 12.95999,-2.87998 12.96,-3.36001 12.64,-4.16001 12.48,-4.63998 12.16,-5.12001 12,-5.92 11.52001,-6.24001 11.35998,-7.03999 11.04001,-7.36 10.72,-8 10.24,-8.48 9.760002,-8.96 9.439995,-9.28 8.959999,-9.92 8.480004,-10.24 7.84,-10.56 7.52,-11.04 6.880001,-11.36 6.399998,-11.68 5.76,-12 L -20,103.68 l 4.64,-12.480003 4,-12.639999 L -7.84,65.760002 -5.12,52.799999 -2.88,39.68 -1.28,26.559999 -0.32,13.28 0,0 z"
                 inkscape:connector-curvature="0"
                 id="path586"
                 style="fill:none;stroke:#000000;stroke-width:1.91999996;stroke-linecap:round;stroke-linejoin:round;stroke-miterlimit:10;stroke-opacity:1;stroke-dasharray:none" /></g></g></g></g></g></g></svg>